<?xml version="1.0" standalone="no"?>
<!DOCTYPE svg PUBLIC "-//W3C//DTD SVG 20010904//EN"
 "http://www.w3.org/TR/2001/REC-SVG-20010904/DTD/svg10.dtd">
<svg version="1.0" xmlns="http://www.w3.org/2000/svg"
 width="16.000000pt" height="16.000000pt" viewBox="0 0 16.000000 16.000000"
 preserveAspectRatio="xMidYMid meet">
<metadata>
Created by potrace 1.11, written by Peter Selinger 2001-2013
</metadata>
<g transform="translate(0.000000,16.000000) scale(0.018824,-0.018824)"
fill="#000000" stroke="none">
<path d="M666 759 l-139 -71 -54 27 c-47 24 -62 27 -122 23 -170 -12 -329
-158 -348 -318 -6 -55 10 -152 33 -198 8 -17 42 -58 74 -92 33 -35 63 -73 66
-86 3 -13 12 -24 19 -24 35 0 68 88 47 127 -8 15 -8 25 3 39 23 33 25 79 5
112 -16 25 -16 31 -4 36 8 3 14 -1 14 -9 0 -24 29 -17 61 14 16 16 66 47 111
69 111 54 150 95 152 158 l1 47 125 92 c119 87 154 125 113 125 -10 0 -80 -32
-157 -71z m-496 -489 c-20 -28 -50 -41 -50 -21 0 11 49 51 62 51 5 0 0 -13
-12 -30z"/>
</g>
</svg>
