<svg xmlns="http://www.w3.org/2000/svg" viewBox="0 0 62.55 64.59"><defs><style>.cls-1,.cls-3,.cls-5{fill:#383c42;}.cls-1{fill-opacity:0.2;}.cls-2{fill:#21aaad;fill-opacity:0.6;}.cls-3,.cls-4{fill-opacity:0.4;}.cls-4{fill:#31d3db;}</style></defs><title>Be an owner</title><g id="Layer_2" data-name="Layer 2"><g id="Perks_and_offers" data-name="Perks and offers"><path class="cls-1" d="M40.82,48.32a4,4,0,0,0-1.79.42.54.54,0,0,1-.77-.48V41.33H32.13l.07.28a5.11,5.11,0,1,1-9.92,0l.07-.28H16.22v22h22V56.45a.54.54,0,0,1,.25-.46A.52.52,0,0,1,39,56a4,4,0,0,0,1.79.42,4,4,0,0,0,0-8.07Z"/><path class="cls-2" d="M55.63,42.55a.54.54,0,0,1-.48-.77A4,4,0,0,0,55.57,40a4,4,0,0,0-8.07,0,4,4,0,0,0,.42,1.79.54.54,0,0,1,0,.52.53.53,0,0,1-.46.25H40.51v6.13l.28-.07a5.11,5.11,0,1,1,0,9.92l-.28-.07v6.13h22v-22Z"/><path class="cls-3" d="M40.51,19.23v6.93a.54.54,0,0,1-.77.48,4,4,0,0,0-1.79-.42,4,4,0,1,0,0,8.07,4,4,0,0,0,1.79-.42.54.54,0,0,1,.77.48v6.93h6.13L46.57,41a5.11,5.11,0,1,1,9.92,0l-.07.28h6.13v-22Z"/><path class="cls-4" d="M20.54,6.1a5.08,5.08,0,0,1,1.11-.52l.27-.09L18.66.29,0,12,11.72,30.68,17.59,27a.54.54,0,0,1,.82.4,4,4,0,0,0,.6,1.74,4,4,0,1,0,6.83-4.29,4,4,0,0,0-1.31-1.29.54.54,0,0,1,0-.91L30.39,19l-3.26-5.19-.2.21A5.11,5.11,0,1,1,20.54,6.1Z"/><path class="cls-5" d="M23.83,40.79H17v23H61.94v-45H39.06v6.16l-.42-.1a5,5,0,1,0,0,9.7l.42-.1v6.38H32a.42.42,0,0,0-.38.61,4.1,4.1,0,0,1,.43,1.84,4.15,4.15,0,0,1-8.3,0,4.1,4.1,0,0,1,.43-1.84.42.42,0,0,0-.38-.61ZM61.07,62.95H39.9V57.64l.42.1a5,5,0,1,0,0-9.7l-.42.1V41.76h7a.42.42,0,0,0,.36-.2.43.43,0,0,0,0-.41,4.08,4.08,0,0,1-.43-1.84,4.15,4.15,0,1,1,8.3,0,4.1,4.1,0,0,1-.43,1.84.42.42,0,0,0,.38.61h5.94ZM37.45,33.8a4.15,4.15,0,1,1,0-8.3,4.1,4.1,0,0,1,1.84.43.42.42,0,0,0,.61-.38v-6H61.07V40.79H55.78l.1-.42a5,5,0,1,0-9.7,0l.1.42H39.9v-7a.42.42,0,0,0-.61-.38A4.09,4.09,0,0,1,37.45,33.8ZM27.92,48.36a5,5,0,0,0,5-5,5,5,0,0,0-.14-1.19l-.1-.42h6.38v7a.42.42,0,0,0,.2.36.41.41,0,0,0,.41,0,4.1,4.1,0,0,1,1.84-.43,4.15,4.15,0,0,1,0,8.3,4.09,4.09,0,0,1-1.84-.43.41.41,0,0,0-.41,0,.42.42,0,0,0-.2.36v6H17.87V41.76h5.31l-.1.42a5,5,0,0,0,4.85,6.18Z"/><path class="cls-5" d="M26.62,23.63l-.31-.3,6.13-3.85L28.17,12.7a.43.43,0,0,0-.72,0,4.1,4.1,0,0,1-1.33,1.35A4.15,4.15,0,1,1,21.7,7a4.09,4.09,0,0,1,1.79-.61.41.41,0,0,0,.34-.23.43.43,0,0,0,0-.41L20.19,0,.81,12.18,13,31.65l5.21-3.28.14.41a5,5,0,1,0,8.22-5.16Zm-1.33,7a4.15,4.15,0,0,1-5.72-1.31,4.1,4.1,0,0,1-.61-1.79.42.42,0,0,0-.65-.32l-5,3.16L2,12.43,19.92,1.17l2.83,4.5-.41.14A5,5,0,1,0,27.5,14l.3-.31,3.4,5.41-6,3.75a.42.42,0,0,0-.2.36.43.43,0,0,0,.2.36,4.08,4.08,0,0,1,1.35,1.33A4.15,4.15,0,0,1,25.28,30.63Z"/></g></g></svg>