<svg xmlns="http://www.w3.org/2000/svg" viewBox="0 0 69.75 61.57"><defs><style>.cls-1{opacity:0.4;}.cls-2{fill:#31d3db;}.cls-3{fill:#383c42;}.cls-4{fill:#afb1b3;}.cls-5{opacity:0.6;}.cls-6{fill:#21aaad;}</style></defs><title>Diversity is strenght</title><g id="Layer_2" data-name="Layer 2"><g id="Perks_and_offers" data-name="Perks and offers"><g class="cls-1"><path class="cls-2" d="M18.41,0a5.45,5.45,0,1,0,5.45,5.45A5.45,5.45,0,0,0,18.41,0Z"/></g><g class="cls-1"><path class="cls-2" d="M51.2,50.66a5.45,5.45,0,1,0,5.45,5.45A5.45,5.45,0,0,0,51.2,50.66Z"/></g><g class="cls-1"><path class="cls-3" d="M36.9,24.86a5.45,5.45,0,1,0,5.45,5.45A5.45,5.45,0,0,0,36.9,24.86Z"/></g><g class="cls-1"><path class="cls-4" d="M18.95,48.33a5.45,5.45,0,1,0,5.45,5.45A5.45,5.45,0,0,0,18.95,48.33Z"/></g><g class="cls-1"><path class="cls-4" d="M64.17,23.47a5.45,5.45,0,1,0,5.45,5.45A5.45,5.45,0,0,0,64.17,23.47Z"/></g><g class="cls-5"><path class="cls-6" d="M5.45,25.87a5.45,5.45,0,1,0,5.45,5.45A5.45,5.45,0,0,0,5.45,25.87Z"/></g><g class="cls-5"><path class="cls-6" d="M51.2,1.1a5.45,5.45,0,1,0,5.45,5.45A5.45,5.45,0,0,0,51.2,1.1Z"/></g><path class="cls-3" d="M49.72,10.56a5.11,5.11,0,1,1,5.11-5.11A5.11,5.11,0,0,1,49.72,10.56Zm0-9.7a4.6,4.6,0,1,0,4.6,4.6A4.6,4.6,0,0,0,49.72.86Z"/><path class="cls-3" d="M49.72,10.68a5.23,5.23,0,1,1,5.23-5.23A5.24,5.24,0,0,1,49.72,10.68Zm0-10.21a5,5,0,1,0,5,5A5,5,0,0,0,49.72.47Zm0,9.7a4.72,4.72,0,1,1,4.72-4.72A4.73,4.73,0,0,1,49.72,10.18Zm0-9.2a4.47,4.47,0,1,0,4.47,4.47A4.48,4.48,0,0,0,49.72,1Z"/><rect class="cls-3" x="56.41" y="8.29" width="0.51" height="16.26" transform="translate(-0.18 32.19) rotate(-31.66)"/><path class="cls-3" d="M60.67,23.64l-.07-.11L52,9.59l.64-.4.07.11,8.6,13.94Zm-8.32-14,8.4,13.62.22-.13L52.57,9.54Z"/><path class="cls-3" d="M35.27,35.42a5.11,5.11,0,1,1,5.11-5.11A5.11,5.11,0,0,1,35.27,35.42Zm0-9.7a4.6,4.6,0,1,0,4.6,4.6A4.6,4.6,0,0,0,35.27,25.72Z"/><path class="cls-3" d="M35.27,35.55a5.23,5.23,0,1,1,5.23-5.23A5.24,5.24,0,0,1,35.27,35.55Zm0-10.21a5,5,0,1,0,5,5A5,5,0,0,0,35.27,25.34Zm0,9.7A4.72,4.72,0,1,1,40,30.32,4.73,4.73,0,0,1,35.27,35Zm0-9.2a4.47,4.47,0,1,0,4.47,4.47A4.48,4.48,0,0,0,35.27,25.84Z"/><rect class="cls-3" x="41.96" y="33.15" width="0.51" height="16.26" transform="translate(-15.38 28.3) rotate(-31.66)"/><path class="cls-3" d="M46.22,48.5l-.07-.11-8.6-13.94.64-.4.07.11,8.6,13.94Zm-8.32-14,8.4,13.63.22-.13L38.12,34.4Z"/><path class="cls-3" d="M20.26,10.56a5.11,5.11,0,1,1,5.11-5.11A5.11,5.11,0,0,1,20.26,10.56Zm0-9.7a4.6,4.6,0,1,0,4.6,4.6A4.6,4.6,0,0,0,20.26.86Z"/><path class="cls-3" d="M20.26,10.68a5.23,5.23,0,1,1,5.23-5.23A5.24,5.24,0,0,1,20.26,10.68Zm0-10.21a5,5,0,1,0,5,5A5,5,0,0,0,20.26.47Zm0,9.7A4.72,4.72,0,1,1,25,5.45,4.73,4.73,0,0,1,20.26,10.18Zm0-9.2a4.47,4.47,0,1,0,4.47,4.47A4.48,4.48,0,0,0,20.26,1Z"/><rect class="cls-3" x="26.95" y="8.29" width="0.51" height="16.26" transform="translate(-4.57 16.72) rotate(-31.66)"/><path class="cls-3" d="M31.21,23.64l-.07-.11L22.55,9.59l.64-.4.07.11,8.6,13.94Zm-8.32-14,8.4,13.62.22-.13L23.11,9.54Z"/><path class="cls-3" d="M5.45,35.42a5.11,5.11,0,1,1,5.11-5.11A5.11,5.11,0,0,1,5.45,35.42Zm0-9.7a4.6,4.6,0,1,0,4.6,4.6A4.6,4.6,0,0,0,5.45,25.72Z"/><path class="cls-3" d="M5.45,35.55a5.23,5.23,0,1,1,5.23-5.23A5.24,5.24,0,0,1,5.45,35.55Zm0-10.21a5,5,0,1,0,5,5A5,5,0,0,0,5.45,25.34Zm0,9.7a4.72,4.72,0,1,1,4.72-4.72A4.73,4.73,0,0,1,5.45,35Zm0-9.2a4.47,4.47,0,1,0,4.47,4.47A4.48,4.48,0,0,0,5.45,25.84Z"/><rect class="cls-3" x="12.15" y="33.15" width="0.51" height="16.26" transform="translate(-19.82 12.65) rotate(-31.66)"/><path class="cls-3" d="M16.41,48.5l-.07-.11L7.75,34.45l.64-.4.07.11,8.6,13.94Zm-8.32-14,8.4,13.63.22-.13L8.31,34.4Z"/><path class="cls-3" d="M49.72,59.8a5.11,5.11,0,0,1-2.21-9.71h0a5.11,5.11,0,1,1,2.21,9.71Zm-2-9.25a4.6,4.6,0,1,0,6.13,2.16,4.6,4.6,0,0,0-6.13-2.16Z"/><path class="cls-3" d="M49.72,59.92A5.24,5.24,0,1,1,52,59.41,5.18,5.18,0,0,1,49.72,59.92Zm0-10.21a5,5,0,1,0,1.66.29A5,5,0,0,0,49.71,49.71Zm0,9.71a4.74,4.74,0,0,1-1.57-.27,4.73,4.73,0,0,1-.47-8.71h0a4.72,4.72,0,1,1,2,9Zm-1.94-8.76a4.48,4.48,0,1,0,3.42-.18,4.44,4.44,0,0,0-3.42.18Z"/><path class="cls-3" d="M64.52,35.42a5.11,5.11,0,0,1-2.21-9.71h0a5.11,5.11,0,1,1,2.21,9.71Zm-2-9.25a4.6,4.6,0,1,0,6.13,2.16,4.57,4.57,0,0,0-6.13-2.16Z"/><path class="cls-3" d="M64.52,35.55A5.24,5.24,0,1,1,66.77,35,5.18,5.18,0,0,1,64.52,35.55Zm0-10.21A5,5,0,1,0,69,28.16,5,5,0,0,0,64.51,25.34Zm0,9.71a4.74,4.74,0,0,1-1.57-.27,4.72,4.72,0,0,1-.47-8.71h0a4.72,4.72,0,1,1,2,9Zm0-9.2a4.45,4.45,0,0,0-1.93.44h0A4.48,4.48,0,1,0,66,26.1,4.51,4.51,0,0,0,64.51,25.84Z"/><rect class="cls-3" x="48.48" y="43.44" width="16.26" height="0.51" transform="translate(-10.75 67.7) rotate(-57.28)"/><path class="cls-3" d="M52.46,50.84l-.64-.41.07-.1,8.86-13.78.64.41-.07.1Zm-.29-.48.22.14L61,37l-.22-.14Z"/><rect class="cls-3" x="3.67" y="18.98" width="16.26" height="0.51" transform="translate(-10.76 18.76) rotate(-57.28)"/><path class="cls-3" d="M7.65,26.38,7,26l.07-.11,8.86-13.78.64.41-.07.11Zm-.29-.48.22.14,8.66-13.46L16,12.43Z"/><path class="cls-3" d="M20.19,59.8A5.11,5.11,0,0,1,18,50.09h0a5.11,5.11,0,1,1,2.21,9.71Zm-2-9.25a4.6,4.6,0,1,0,6.13,2.16,4.6,4.6,0,0,0-6.13-2.16Z"/><path class="cls-3" d="M20.19,59.92a5.24,5.24,0,1,1,2.26-.52A5.18,5.18,0,0,1,20.19,59.92Zm0-10.21a5,5,0,1,0,4.5,2.83A5,5,0,0,0,20.18,49.71Zm0,9.71a4.73,4.73,0,0,1-1.57-.27,4.73,4.73,0,0,1-.47-8.71h0a4.72,4.72,0,1,1,2,9Zm-1.94-8.76a4.47,4.47,0,1,0,6,2.1,4.45,4.45,0,0,0-6-2.1Z"/><rect class="cls-3" x="18.94" y="43.44" width="16.26" height="0.51" transform="translate(-24.32 42.85) rotate(-57.28)"/><path class="cls-3" d="M22.93,50.84l-.64-.41.07-.1,8.86-13.78.64.41-.07.1Zm-.29-.48.22.14L31.51,37l-.22-.14Z"/><rect class="cls-3" x="33.38" y="18.73" width="16.26" height="0.51" transform="translate(3.1 43.65) rotate(-57.28)"/><path class="cls-3" d="M37.36,26.13l-.64-.41.07-.1,8.86-13.78.64.41-.07.11Zm-.29-.48.22.14,8.66-13.46-.22-.14Z"/><rect class="cls-3" x="13.49" y="30.06" width="16.92" height="0.51"/><path class="cls-3" d="M30.54,30.69H13.37v-.76H30.54Zm-16.92-.25H30.29v-.26H13.62Z"/><rect class="cls-3" x="42.74" y="30.06" width="16.92" height="0.51"/><path class="cls-3" d="M59.79,30.69H42.62v-.76H59.79Zm-16.92-.25H59.54v-.26H42.87Z"/><rect class="cls-3" x="25.04" y="54.44" width="16.92" height="0.51"/><path class="cls-3" d="M42.08,55.07H24.91v-.76H42.08Zm-16.92-.25H41.83v-.26H25.16Z"/><rect class="cls-3" x="25.04" y="4.84" width="16.92" height="0.51"/><path class="cls-3" d="M42.08,5.47H24.91V4.71H42.08ZM25.16,5.22H41.83V5H25.16Z"/></g></g></svg>