<svg xmlns="http://www.w3.org/2000/svg" viewBox="0 0 60.25 55.35"><defs><style>.cls-1{fill:#31d3db;}.cls-1,.cls-3{fill-opacity:0.4;}.cls-2{fill:#21aaad;fill-opacity:0.6;}.cls-3{fill:#afb1b3;}.cls-4{fill:#383c42;}</style></defs><title>Reach the stars</title><g id="Layer_2" data-name="Layer 2"><g id="Perks_and_offers" data-name="Perks and offers"><path class="cls-1" d="M14.43,22.51a1.42,1.42,0,0,1,.61.14l8.76,5.24a.35.35,0,0,0,.35-.07.36.36,0,0,0,.13-.38L22.08,18.7a1.43,1.43,0,0,1,.35-1.34l6.3-6.71a.37.37,0,0,0-.27-.62H20a1.44,1.44,0,0,1-1.3-.81L14.75,1.27a.37.37,0,0,0-.66,0L10.16,9.22a1.44,1.44,0,0,1-1.3.81H.37a.36.36,0,0,0-.34.22.36.36,0,0,0,.07.4l6.3,6.72a1.44,1.44,0,0,1,.35,1.34L4.55,27.45a.37.37,0,0,0,.52.42l8.67-5.19A1.57,1.57,0,0,1,14.43,22.51Z"/><path class="cls-2" d="M50.17,26.37a1,1,0,0,1,.43.1l6.13,3.67a.24.24,0,0,0,.25,0,.25.25,0,0,0,.09-.27L55.53,23.7a1,1,0,0,1,.24-.94l4.41-4.7a.26.26,0,0,0-.19-.44H54a1,1,0,0,1-.91-.57L50.39,11.5a.26.26,0,0,0-.47,0l-2.75,5.57a1,1,0,0,1-.91.56H40.33a.26.26,0,0,0-.19.44l4.41,4.7a1,1,0,0,1,.24.94l-1.54,6.12a.26.26,0,0,0,.36.3l6.07-3.63A1.1,1.1,0,0,1,50.17,26.37Z"/><path class="cls-3" d="M32.5,50.79a1.19,1.19,0,0,1,.52.12l7.38,4.42a.29.29,0,0,0,.3-.06A.3.3,0,0,0,40.8,55l-1.85-7.37a1.21,1.21,0,0,1,.29-1.13l5.31-5.66a.31.31,0,0,0-.23-.53H37.17a1.21,1.21,0,0,1-1.09-.68l-3.31-6.7a.31.31,0,0,0-.56,0l-3.31,6.7a1.21,1.21,0,0,1-1.09.68H20.65a.31.31,0,0,0-.23.53l5.31,5.66A1.21,1.21,0,0,1,26,47.58L24.18,55a.31.31,0,0,0,.44.36l7.31-4.38A1.32,1.32,0,0,1,32.5,50.79Z"/><path class="cls-4" d="M24.76,27a1.34,1.34,0,0,1-.59-.14L16,22a.35.35,0,0,0-.26,0L7.7,26.82a1.34,1.34,0,0,1-1.93-1.52l2-8.14a.34.34,0,0,0-.08-.32L1.87,10.6a1.34,1.34,0,0,1,1-2.26h7.9a.34.34,0,0,0,.31-.19L14.71.75a1.34,1.34,0,0,1,2.41,0l3.65,7.4a.34.34,0,0,0,.31.19H29a1.34,1.34,0,0,1,1,2.26l-5.86,6.25a.34.34,0,0,0-.08.32l2,8.14A1.35,1.35,0,0,1,24.76,27Zm-8.83-6a1.32,1.32,0,0,1,.57.13L24.65,26A.33.33,0,0,0,25,25.9a.34.34,0,0,0,.12-.35l-2-8.13a1.33,1.33,0,0,1,.33-1.25l5.86-6.25A.35.35,0,0,0,29,9.34h-7.9a1.34,1.34,0,0,1-1.21-.75l-3.65-7.4a.35.35,0,0,0-.62,0L12,8.59a1.34,1.34,0,0,1-1.21.75H2.85a.34.34,0,0,0-.25.58l5.86,6.25a1.34,1.34,0,0,1,.32,1.25l-2,8.14a.34.34,0,0,0,.48.39l8.07-4.83A1.46,1.46,0,0,1,15.93,21Z"/><path class="cls-4" d="M55.36,29.35a1.09,1.09,0,0,1-.48-.11l-5.72-3.42-5.68,3.4a1.1,1.1,0,0,1-1.2-.11A1.08,1.08,0,0,1,41.91,28l1.43-5.7-4.13-4.46A1.09,1.09,0,0,1,40,16h5.54l2.64-5.23a1.09,1.09,0,0,1,2,0l2.56,5.18,5.62.05a1.09,1.09,0,0,1,.8,1.84L55,22.21,56.41,28a1.09,1.09,0,0,1-1.06,1.36ZM40,17c-.11.11-.08.14-.07.15L44,21.53a1.09,1.09,0,0,1,.26,1l-1.43,5.7.35.55L43,28.36,48.65,25a1.11,1.11,0,0,1,1,0l5.72,3.42.57-.25-.49.12L54,22.54a1.08,1.08,0,0,1,.26-1l4.1-4.38a.09.09,0,0,0-.07-.15H52.78a1.08,1.08,0,0,1-1-.61l-2.56-5.18a.09.09,0,0,0-.08-.05l-2.64,5.23a1.08,1.08,0,0,1-1,.61Z"/><path class="cls-4" d="M39.39,55.35a1.26,1.26,0,0,1-.55-.13l-7.29-4.36a.25.25,0,0,0-.18,0L24.17,55.2a1.26,1.26,0,0,1-1.38-.14,1.24,1.24,0,0,1-.43-1.28l1.82-7.28a.25.25,0,0,0-.06-.24l-5.24-5.59a1.26,1.26,0,0,1,.92-2.11h7.06a.26.26,0,0,0,.23-.14l3.26-6.62a1.25,1.25,0,0,1,2.25,0l3.26,6.61a.26.26,0,0,0,.23.14h7.06a1.26,1.26,0,0,1,.92,2.11l-5.24,5.59a.25.25,0,0,0-.06.24l1.82,7.27a1.26,1.26,0,0,1-1.22,1.56Zm-7.9-5.49A1.23,1.23,0,0,1,32,50l7.29,4.36a.24.24,0,0,0,.23-.05.25.25,0,0,0,.09-.26l-1.82-7.27a1.25,1.25,0,0,1,.3-1.16L43.35,40a.25.25,0,0,0-.19-.43H36.1a1.26,1.26,0,0,1-1.12-.7l-3.26-6.61a.26.26,0,0,0-.46,0L28,38.88a1.26,1.26,0,0,1-1.12.7H19.8a.25.25,0,0,0-.19.43l5.24,5.59a1.25,1.25,0,0,1,.3,1.16L23.33,54a.25.25,0,0,0,.09.26.25.25,0,0,0,.27,0L30.9,50A1.35,1.35,0,0,1,31.5,49.86Z"/></g></g></svg>