<svg xmlns="http://www.w3.org/2000/svg" viewBox="0 0 27.57 53.68"><defs><style>.cls-1{fill:#21aaad;opacity:0.6;}.cls-2{fill:#afb1b3;}.cls-2,.cls-3{opacity:0.4;}.cls-3{fill:#31d3db;}.cls-4{fill:#383c42;}</style></defs><title>Accelerate - icon 3</title><g id="Layer_2" data-name="Layer 2"><g id="Narrative_section" data-name="Narrative section"><path class="cls-1" d="M9.06,9.34a31.38,31.38,0,0,1,5.23-7.63l.49-.53.49.53a31.92,31.92,0,0,1,5.24,7.62l.48,1H8.58Z"/><path class="cls-2" d="M6.86,36.38a10.25,10.25,0,0,0-2.43,5.33L4.12,44l-1-2.09a12.82,12.82,0,0,1,.92-12.31l1-1.52.24,1.81c.06.24,1.23,4.7,1.67,5.82l.15.38Z"/><path class="cls-3" d="M21.29,36.25l-.17.41H8.44l-.17-.41A32.59,32.59,0,0,1,8,11.71l.17-.43H21.4l.17.43A32.59,32.59,0,0,1,21.29,36.25Z"/><path class="cls-2" d="M22.71,36.38l-.26-.31.15-.38c.62-1.59,1.62-5.63,1.68-5.87l.34-1.56.88,1.32a12.66,12.66,0,0,1,2.08,7,12.79,12.79,0,0,1-1.15,5.31l-1,2.1-.33-2.28A10.44,10.44,0,0,0,22.71,36.38Z"/><path class="cls-4" d="M22.94,45.54c-.07.49.12.58.18.61a.67.67,0,0,0,.64-.06,13.76,13.76,0,0,0,.13-18.87L23.68,27l0-.3A33.21,33.21,0,0,0,14.13.13a.53.53,0,0,0-.7,0A33.22,33.22,0,0,0,3.86,26.69l0,.3-.21.22A13.75,13.75,0,0,0,3.8,46.07a.59.59,0,0,0,.63.06c.07,0,.27-.14.19-.58l-.08-.42a10.65,10.65,0,0,1-.24-1.93A9.36,9.36,0,0,1,6,37.8l.34-.49.53.28a.52.52,0,0,0,.25.07H20.44a.52.52,0,0,0,.24-.07l.53-.28.34.49a9.36,9.36,0,0,1,1.7,5.4,9.23,9.23,0,0,1-.2,1.65C23,45.08,23,45.3,22.94,45.54ZM8.06,9.34a31.38,31.38,0,0,1,5.23-7.63l.49-.53.49.53a31.92,31.92,0,0,1,5.24,7.62l.48,1H7.58Zm-2.2,27a10.25,10.25,0,0,0-2.43,5.33L3.12,44l-1-2.09a12.82,12.82,0,0,1,.92-12.31l1-1.52.24,1.81c.06.24,1.23,4.7,1.67,5.82l.15.38Zm14.43-.13-.17.41H7.44l-.17-.41A32.59,32.59,0,0,1,7,11.71l.17-.43H20.4l.17.43A32.59,32.59,0,0,1,20.29,36.25Zm1.42.13-.26-.31.15-.38c.62-1.59,1.62-5.63,1.68-5.87l.34-1.56.88,1.32a12.66,12.66,0,0,1,2.08,7,12.79,12.79,0,0,1-1.15,5.31l-1,2.1-.33-2.28A10.44,10.44,0,0,0,21.71,36.38Z"/><path class="cls-4" d="M9.54,47.34V41.46a.49.49,0,1,0-1,0v5.88a.49.49,0,0,0,.49.49A.5.5,0,0,0,9.54,47.34Z"/><path class="cls-4" d="M14.25,53.34a.48.48,0,0,0,0-.11V41.46a.31.31,0,0,0,0-.1.48.48,0,0,0-.47-.39.5.5,0,0,0-.35.15.51.51,0,0,0-.13.23.87.87,0,0,0,0,.13V53.23a.41.41,0,0,0,0,.11A.51.51,0,0,0,14.25,53.34Z"/><path class="cls-4" d="M18.87,41.11a.5.5,0,0,0-.36-.15.49.49,0,0,0-.49.49v5.88a.49.49,0,0,0,.49.49.5.5,0,0,0,.49-.49V41.46A.46.46,0,0,0,18.87,41.11Z"/></g></g></svg>