<svg xmlns="http://www.w3.org/2000/svg" viewBox="0 0 46.91 50.48"><defs><style>.cls-1{fill:#c1ced4;}.cls-2{fill:#31d3db;opacity:0.4;}.cls-3{fill:#383c42;}.cls-4{fill:#21aaad;opacity:0.6;}.cls-5{fill:#fff;}.cls-6{fill:#4ba9b6;}</style></defs><title>All your data - iocn 1</title><g id="Layer_2" data-name="Layer 2"><g id="Narrative_section" data-name="Narrative section"><path class="cls-1" d="M41.55,16.19a1.27,1.27,0,0,0-.9-.37H7.14a1.26,1.26,0,0,0-.9.37,1.28,1.28,0,0,0-.37.9V40.35H41.93V17.09A1.28,1.28,0,0,0,41.55,16.19ZM39.59,38H8.2V18.15H39.59V38Z"/><polygon class="cls-2" points="34.06 31.34 32.03 29.31 27.88 32.79 26.97 31.88 25.11 33.74 23.14 31.77 19.11 35.8 17.65 34.34 14.65 37.34 11.77 34.45 5.87 40.35 37.7 40.35 37.7 27.69 34.06 31.34"/><path class="cls-3" d="M40.4,44.51H7.49a1.57,1.57,0,0,1-1.57-1.57V17.37a1.62,1.62,0,0,1,1.61-1.62H40.36A1.62,1.62,0,0,1,42,17.37V42.94A1.57,1.57,0,0,1,40.4,44.51ZM7.53,16.76a.62.62,0,0,0-.61.62V42.94a.57.57,0,0,0,.57.57H40.4a.57.57,0,0,0,.57-.57V17.37a.62.62,0,0,0-.61-.62Z"/><rect class="cls-1" x="18.65" y="44.62" width="10.66" height="5.33"/><rect class="cls-3" x="16.1" y="49.41" width="15.77" height="1.07"/><path class="cls-3" d="M46,19.85,41.25,24.6l-2.82-2.82-5.84,4.9-1.31-1.31L28.66,28l-2.77-2.77-5.67,5.67-2.06-2.06L13.94,33,9.89,29,1.21,37.67l.76.76L9.89,30.5l4.06,4.05,4.22-4.22,2.06,2.06,5.67-5.67,2.77,2.77,2.62-2.62,1.25,1.25,5.84-4.9,2.88,2.89,5.51-5.5Z"/><polygon class="cls-3" points="46.91 23.16 45.84 23.16 45.84 20.77 43.45 20.77 43.45 19.7 46.91 19.7 46.91 23.16"/><polygon class="cls-4" points="0 10.82 0 24.4 2.6 24.4 2.6 27.98 6.19 24.4 23.14 24.4 23.14 10.82 0 10.82"/><rect class="cls-5" x="1.77" y="19.78" width="1.37" height="1.85"/><rect class="cls-5" x="3.58" y="18.06" width="1.37" height="3.57"/><rect class="cls-5" x="5.39" y="18.86" width="1.38" height="2.78"/><rect class="cls-5" x="7.21" y="14.89" width="1.37" height="6.74"/><rect class="cls-5" x="9.02" y="16.68" width="1.37" height="4.95"/><rect class="cls-5" x="10.83" y="13.55" width="1.37" height="8.08"/><rect class="cls-5" x="12.65" y="17.44" width="1.37" height="4.2"/><rect class="cls-5" x="14.46" y="18.27" width="1.37" height="3.37"/><rect class="cls-5" x="16.27" y="14.89" width="1.37" height="6.74"/><rect class="cls-5" x="18.08" y="11.83" width="1.38" height="9.81"/><path class="cls-1" d="M32.87,3.74a4.86,4.86,0,1,0,4.87,4.86A4.86,4.86,0,0,0,32.87,3.74Z"/><path class="cls-3" d="M33.27,9.66,26,3.36l.35-.4A8.61,8.61,0,0,1,34,.07l.53.07Zm-5.72-6.4,4.92,4.28.86-6.46A7.51,7.51,0,0,0,27.55,3.27Z"/><path class="cls-2" d="M32.61,14.41h.26a5.78,5.78,0,0,0,3.63-1.27l-2.29-2.9a2.1,2.1,0,0,1-1.32.47h-.12Z"/><path class="cls-4" d="M34.8,7.74a2.11,2.11,0,0,1-.6,2.5L37,13.73a6.59,6.59,0,0,0,1.87-7.81Z"/><path class="cls-6" d="M37.31,6.62,34.8,7.74a2.11,2.11,0,0,1-.6,2.5l1.73,2.14a4.85,4.85,0,0,0,1.38-5.76Z"/><rect class="cls-3" x="6.39" y="39.85" width="35.04" height="1"/></g></g></svg>