<svg xmlns="http://www.w3.org/2000/svg" viewBox="0 0 230.55 287.8"><defs><style>.cls-1{fill:#f2f2f2;}.cls-2{fill:#fff;}.cls-11,.cls-12,.cls-13,.cls-2,.cls-9{fill-rule:evenodd;}.cls-3{opacity:0.4;}.cls-10,.cls-4,.cls-9{fill:#31d3db;}.cls-5{fill:#afb1b3;}.cls-6{opacity:0.6;}.cls-12,.cls-7{fill:#21aaad;}.cls-13,.cls-8{fill:none;stroke:#383c42;stroke-linecap:round;stroke-linejoin:round;stroke-width:1.5px;}.cls-10,.cls-9{opacity:0.5;}.cls-11{fill:#383c42;}</style></defs><title>Bring Agility tp Your Analytics</title><g id="Layer_2" data-name="Layer 2"><g id="Gnarly_section" data-name="Gnarly section"><circle class="cls-1" cx="140.02" cy="90.53" r="90.53"/><path class="cls-2" d="M22.36,159.9a9.61,9.61,0,1,0,8.76-17,9.61,9.61,0,1,0-8.76,17Z"/><path class="cls-2" d="M182.5,113.07a9.6,9.6,0,0,0-8.27,4.73A9.61,9.61,0,1,0,189.74,129a9.61,9.61,0,0,0-7.23-15.94Z"/><path class="cls-2" d="M27.81,99.36a9.56,9.56,0,0,0,5-1.4,9.61,9.61,0,1,0-8.34-17.22,9.61,9.61,0,0,0,3.36,18.62Z"/><path class="cls-2" d="M125.33,56.87a9.61,9.61,0,1,0,11.34-15.44,9.61,9.61,0,1,0-11.34,15.44Z"/><path class="cls-2" d="M67.75,47A9.57,9.57,0,0,0,73,45.43a9.61,9.61,0,1,0-8.93-16.92A9.62,9.62,0,0,0,67.75,47Z"/><path class="cls-2" d="M153.81,153.42l-.4,19.07,1.1-.23-.05,2.62a53.5,53.5,0,0,0,6.4-1.56c5.7-1.94,9.91-3.38,15.09-6.62a40.45,40.45,0,0,0,12.46-11.2,18.71,18.71,0,0,0,2.92-5.93s-.86.31-2.3.81a15.6,15.6,0,0,0,1.26-3.19S164.36,156.71,153.81,153.42Z"/><path class="cls-2" d="M45.19,180.68c-.37.13-1.07.36-1.05.6.07.85,9.23,1.45,17.45.3a64.33,64.33,0,0,0,10.08-2c4,7.37,8.27,14.06,12.1,19.93,1,1.5,2.08,3.16,3.23,4.88,1.68,2.52,14.19,21.23,17.64,29.68a24.65,24.65,0,0,1,1.08,3.28,15.12,15.12,0,0,1,.66,6.74c-.12.66-.66,4.46-3.8,6.51a35.68,35.68,0,0,1-4.06,1.78c-7,3.07-14.66,10.29-23.62,20.67a25,25,0,0,1-3.39,3.31c-3.4,2.74-6.52,3.12-6.43,3.76.06.4,1.35.68,3.18.78-.67.29-1.07.49-1,.72.09.68,3.66,1,7.41.71,17.57-1.36,34.17-16.22,35.57-17.5.35.27.72.54,1.13.8l.58.36a15.74,15.74,0,0,0,1.56,1.14c5.6,3.51,9.85,5.27,18.35,9.17.4.18.76.37,1.09.55a23.86,23.86,0,0,1,2.06,2.14c.89,1,1.33,1.72,1.62,1.61.11,0,.18-.21.22-.47l.31.35c.89,1,1.33,1.72,1.62,1.61.69-.26,0-5.21-1.76-9.52-2.19-5.49-4.81-7-12.75-18.26-1.45-2.05-3.13-4.51-2.85-7.59a10.09,10.09,0,0,1,2.76-5.57,153,153,0,0,0,11.29-15.69,36.31,36.31,0,0,0,7.67-13.16c3.4-10.62,7.07-23.64,8.26-38.92,2-19.47.16-30.27-.27-33.42a57.24,57.24,0,0,1,.47-10.34c.27-1.31.46-2.51.61-3.65.73-4.41,1.37-9.84-1.18-12.43-.71-1.19-1.44-1.5-1.68-1.1-.13-.6,0,0-.14-.6l0-.08A8.09,8.09,0,0,0,150,109v0h0c.51-3.49-.3-8-1.38-9.93l38.46-57.32c2.41-3.55,4.39-8.44,2.21-10.22a2.64,2.64,0,0,0-1.47-.59,2.34,2.34,0,0,0-.67-.91c-1.86-1.52-4.85-.15-8.61,3.67L133.09,80.23l0,0a1.37,1.37,0,0,0-.25-.19,11.07,11.07,0,0,0-1.26-.82,16.14,16.14,0,0,0-2.28-1.57c-22.72-11.85-45.85-2.71-58.8,14.66-6.26,8.4-11.18,23.71-12,36.4-.06.88-.2,3.34-.09,6.7a83.2,83.2,0,0,0,3.08,19.55l1.83,4.49c-1.43,1.67-3.15,3.87-5.81,7.24-7.53,9.57-13.83,11.75-13.83,11.75s2.1.26,5.17.39A16.68,16.68,0,0,1,45.19,180.68Z"/><g class="cls-3"><path class="cls-4" d="M69.41,26.92A9.62,9.62,0,1,0,79,36.53,9.62,9.62,0,0,0,69.41,26.92Z"/></g><g class="cls-3"><path class="cls-5" d="M25.71,141.29a9.62,9.62,0,1,0,9.62,9.62A9.62,9.62,0,0,0,25.71,141.29Z"/></g><g class="cls-3"><path class="cls-5" d="M182.5,113.07a9.62,9.62,0,1,0,9.62,9.62A9.62,9.62,0,0,0,182.5,113.07Z"/></g><g class="cls-6"><path class="cls-7" d="M27.81,80.13a9.62,9.62,0,1,0,9.62,9.62A9.62,9.62,0,0,0,27.81,80.13Z"/></g><g class="cls-6"><path class="cls-7" d="M130.4,39.1A9.62,9.62,0,1,0,140,48.71,9.62,9.62,0,0,0,130.4,39.1Z"/></g><path class="cls-8" d="M27.76,142.33A9.62,9.62,0,1,0,37.38,152,9.62,9.62,0,0,0,27.76,142.33Z"/><path class="cls-8" d="M29.42,79.35A9.62,9.62,0,1,0,39,89,9.62,9.62,0,0,0,29.42,79.35Z"/><path class="cls-8" d="M67.75,27.8a9.62,9.62,0,1,0,9.62,9.62A9.62,9.62,0,0,0,67.75,27.8Z"/><path class="cls-8" d="M131.6,40a9.62,9.62,0,1,0,9.62,9.62A9.62,9.62,0,0,0,131.6,40Z"/><path class="cls-8" d="M181.46,114.51a9.62,9.62,0,1,0,9.62,9.62A9.62,9.62,0,0,0,181.46,114.51Z"/><path class="cls-9" d="M187.19,30c-1.86-1.52-4.85-.15-8.61,3.67L133.09,80.23a1.38,1.38,0,0,0-.41-.28l-1.08-.72a16.52,16.52,0,0,0-2.32-1.6c-22.72-11.85-45.85-2.71-58.8,14.66-6.26,8.4-11.18,23.71-12,36.4-.06.88-.2,3.34-.09,6.7a83.19,83.19,0,0,0,3.08,19.55l2.13,5.22.27-.32c6.5-7.7,12.09-10.65,18.69-10.17a11.92,11.92,0,0,1,4.56,1.08c3.4,1.8,5.46,5.37,3.57,11.57-.65,2.14-1.63,4.45-5.89,8.16a47.23,47.23,0,0,1-13.6,8.21c4.09,7.71,8.58,14.67,12.56,20.77,1,1.5,2.08,3.16,3.23,4.88,1.68,2.52,14.19,21.23,17.64,29.68a24.66,24.66,0,0,1,1.08,3.28,15.12,15.12,0,0,1,.66,6.74c-.12.66-.66,4.46-3.8,6.51a35.65,35.65,0,0,1-4.06,1.78c-7,3.07-14.66,10.29-23.62,20.67a25,25,0,0,1-3.39,3.31c-3.4,2.74-6.52,3.12-6.43,3.76s3.66,1,7.41.71c18.37-1.43,35.68-17.6,35.68-17.6.72.43,1.75,1.5,3.17,2.39,5.6,3.51,9.85,5.27,18.35,9.17a13.92,13.92,0,0,1,5.3,4.19c.89,1,1.33,1.72,1.62,1.61.69-.26,0-5.21-1.76-9.52-2.19-5.49-4.81-7-12.75-18.26-1.45-2.05-3.13-4.51-2.85-7.59A10.09,10.09,0,0,1,122,239.6a144.66,144.66,0,0,0,13.1-18.71c7.71-13.55,11.84-31.34,13.3-42.14,3.24-23.86,1-36.83.55-40.34a57.24,57.24,0,0,1,.47-10.34c.75-5.09,3.37-15-2.25-17.18-.13-.61,0,0-.15-.62,1.88-3.25.91-10.26-.5-12.75L185,40.21C187.4,36.66,189.37,31.77,187.19,30Z"/><path class="cls-2" d="M128,231.84s11.91-19.37-2.56-42c-2.43-3.79-10-15-12.63-19.87-6.6-12-16.15-44.53-2.51-42.78,13.95,1.8,29.57,1,39.05-14.82.68-1.14,5.15,3.18,2.25,17.18-1.49,7.17-.66,18.22-.27,22.67,2.13,24.67-3.31,44.79-8.18,60A38,38,0,0,1,128,231.84Z"/><path class="cls-10" d="M154.46,174.87a53.48,53.48,0,0,0,6.4-1.56c5.7-1.94,9.91-3.38,15.09-6.62a40.45,40.45,0,0,0,12.46-11.2,18.71,18.71,0,0,0,2.92-5.93s-25.91,9.54-36.46,6.24"/><path class="cls-10" d="M43.68,178.42s6.3-2.17,13.83-11.75c3.29-4.18,5.16-6.58,6.79-8.36,6.25-6.82,11.5-9.32,17.54-8.64A9.21,9.21,0,0,1,86,150.83c3,2.25,4.81,5.14,2.85,10.76-.68,1.94-1.67,4-5.72,7.28a45.61,45.61,0,0,1-20.19,9C54.36,179.77,43.68,178.42,43.68,178.42Z"/><line class="cls-8" x1="0.75" y1="287.05" x2="219.6" y2="287.05"/><path class="cls-8" d="M153.42,172.48a53.48,53.48,0,0,0,6.4-1.56c5.7-1.94,9.91-3.38,15.09-6.62a40.45,40.45,0,0,0,12.46-11.2,18.71,18.71,0,0,0,2.92-5.93s-25.91,9.54-36.46,6.24"/><path class="cls-8" d="M150,109c-3.6,16.25-28.21,21.85-39.79,18.26"/><path class="cls-8" d="M81.58,148.67c-3.36.34-9.67,2.74-15.09,8.52-.59.63-1.81,2.33-2.54,3.31-3.88,5.2-3.89,5.87-5.78,8.28-1,1.28-5.89,9.39-13,11.9-.37.13-1.07.36-1.05.6.07.85,9.23,1.45,17.45.3,5.81-.81,15.89-2.21,24.49-10.07A37.07,37.07,0,0,0,95,158.88"/><path class="cls-11" d="M99,110a3.35,3.35,0,1,1,4.14,5.27A3.35,3.35,0,0,1,99,110"/><path class="cls-2" d="M137.73,86.09,184.4,34.64a10.15,10.15,0,0,1,4.4-3.11c-1.14-.61-3.25.7-4.89,2.16L134.78,84.26c-.49,3.23,3.63,8.23,7.22,8.65-1.86-1.88-4.18-4.34-4.49-6.66"/><g class="cls-6"><path class="cls-12" d="M80.73,89.58a1.94,1.94,0,0,1,2.85,1.32,3.09,3.09,0,0,1-1.52,3.47,2,2,0,0,1-2.85-1.32,3.09,3.09,0,0,1,1.52-3.47"/><path class="cls-12" d="M87.36,84.31a1.65,1.65,0,0,1,2.2,1.46,2.63,2.63,0,0,1-1.71,2.67A1.65,1.65,0,0,1,85.65,87a2.63,2.63,0,0,1,1.71-2.67"/></g><g class="cls-6"><path class="cls-12" d="M64.37,134.13a2.92,2.92,0,0,1,4.68.34,4.52,4.52,0,0,1-.29,5.65,2.9,2.9,0,0,1-4.63-.33,4.61,4.61,0,0,1,.23-5.66"/><path class="cls-12" d="M65.91,116.47a2.58,2.58,0,0,1,4.12.29,4.12,4.12,0,0,1-.24,5,2.58,2.58,0,0,1-4.12-.29,4.16,4.16,0,0,1,.24-5"/><path class="cls-12" d="M71,122.94a1.94,1.94,0,0,1,3.08.24,3,3,0,0,1-.2,3.68,1.91,1.91,0,0,1-3.05-.21,3.09,3.09,0,0,1,.18-3.72"/><path class="cls-12" d="M65.53,146.47a2,2,0,0,1,3.17.22,3.14,3.14,0,0,1-.17,3.87,2,2,0,0,1-3.21-.2,3.14,3.14,0,0,1,.2-3.9"/></g><g class="cls-6"><path class="cls-12" d="M78.67,184a2.11,2.11,0,0,1,3-1.61,3.27,3.27,0,0,1,2,3.56,2.09,2.09,0,0,1-3,1.59A3.33,3.33,0,0,1,78.67,184"/><path class="cls-12" d="M84.16,191.08a1.43,1.43,0,0,1,2-1.09,2.27,2.27,0,0,1,1.4,2.43,1.46,1.46,0,0,1-2,1.12,2.27,2.27,0,0,1-1.39-2.46"/></g><path class="cls-12" d="M181.9,34.36l-1.35,1.39c.61,1.54,3.34,3.91,4.5,4.07-.73-1-2.6-3-3.15-5.46M170.09,46.29l-1.56,1.59c.69,2.4,3.52,5.44,5.63,5.35A13.6,13.6,0,0,1,170.09,46.29ZM157.83,58.73l-2,2.06c1.4,3.53,5.7,7,7.27,6.76A20.13,20.13,0,0,1,157.83,58.73ZM145.42,71.3l-2.31,2.33c1.44,4,6.26,7.86,8.89,7.94C149.26,79.3,146,74.88,145.42,71.3Z"/><path class="cls-13" d="M73.15,179.8c4.14,7.86,8.72,15,12.76,21.16,1,1.5,2.08,3.16,3.23,4.88,1.68,2.52,14.19,21.23,17.64,29.68a24.65,24.65,0,0,1,1.08,3.28,15.12,15.12,0,0,1,.66,6.74c-.12.66-.66,4.46-3.8,6.51a35.63,35.63,0,0,1-4.06,1.78C93.68,256.9,86,264.12,77,274.5a25,25,0,0,1-3.39,3.31c-3.4,2.74-6.52,3.12-6.43,3.76s3.66,1,7.41.71c18.37-1.43,35.68-17.6,35.68-17.6.72.43,1.75,1.5,3.17,2.39,5.6,3.51,9.85,5.27,18.35,9.17a13.92,13.92,0,0,1,5.3,4.19c.89,1,1.33,1.72,1.62,1.61.69-.26,0-5.21-1.76-9.52-2.19-5.49-4.81-7-12.75-18.26-1.45-2.05-3.13-4.51-2.85-7.59a10.09,10.09,0,0,1,2.76-5.57,144.67,144.67,0,0,0,13.1-18.71c7.71-13.55,11.84-31.34,13.3-42.14,3.24-23.86,1-36.83.55-40.34a57.26,57.26,0,0,1,.47-10.34c.75-5.09,3.37-15-2.25-17.18-.13-.61,0,0-.15-.62,1.88-3.25.91-10.26-.5-12.75l38.46-57.32c2.41-3.55,4.39-8.44,2.21-10.22-1.86-1.52-4.85-.15-8.61,3.67L135.24,81.73a1.38,1.38,0,0,0-.41-.28l-1.08-.72a16.53,16.53,0,0,0-2.32-1.6c-22.72-11.85-45.85-2.71-58.8,14.66-6.26,8.4-11.18,23.71-12,36.4-.06.88-.2,3.34-.09,6.7a83.19,83.19,0,0,0,3.08,19.55"/></g></g></svg>