<svg xmlns="http://www.w3.org/2000/svg" viewBox="0 0 190.89 264.6"><defs><style>.cls-1{fill:#f2f2f2;}.cls-2,.cls-4{fill:#fff;}.cls-3,.cls-5{fill:#31d3db;opacity:0.5;}.cls-10,.cls-3,.cls-4,.cls-7,.cls-9{fill-rule:evenodd;}.cls-10,.cls-6{fill:none;stroke:#383c42;stroke-linecap:round;stroke-linejoin:round;stroke-width:1.5px;}.cls-7{fill:#383c42;}.cls-11,.cls-8{opacity:0.6;}.cls-12,.cls-9{fill:#21aaad;}.cls-11,.cls-13{fill:#afb1b3;}.cls-12{opacity:0.7;}.cls-13{opacity:0.4;}</style></defs><title>Embrace Self Service</title><g id="Layer_2" data-name="Layer 2"><g id="Menu"><circle class="cls-1" cx="95.44" cy="121.38" r="95.44"/><path class="cls-2" d="M175,90.19a11.84,11.84,0,0,0-.3-1.46s-.61.7-1.67,1.86c0-.53-.07-1-.12-1.42v0c-.05-.43-.11-.8-.17-1.1v0c-.08-.44-.16-.74-.19-.86V87.1a146.92,146.92,0,0,1-16.08,16.68c-4.32,3.66-8.84,6.71-12.65,7.55v.19l-.34.09.67,4.32,1.41,19.29a16.46,16.46,0,0,0,1.41-1l.33,2.15a71.05,71.05,0,0,0,6.26-5l.87-.69a55.78,55.78,0,0,0,5-4.72,80.31,80.31,0,0,0,8.4-10.64c.62-1,1.24-2,1.85-3.15a49.9,49.9,0,0,0,3.93-8.92c.24-.75.46-1.54.66-2.36a37.31,37.31,0,0,0,.9-5.31c.08-.78.11-1.51.11-2.17A20.93,20.93,0,0,0,175,90.19Z"/><path class="cls-2" d="M182.22,2.19a2.75,2.75,0,0,0-1.54-.61,2.44,2.44,0,0,0-.7-.95C178-1,174.92.48,171,4.46L123.56,53l0,0a1.44,1.44,0,0,0-.26-.2A11.56,11.56,0,0,0,122,52a16.86,16.86,0,0,0-2.38-1.64C95.89,38,71.77,47.48,58.27,65.6c-6.53,8.76-11.66,24.73-12.51,38-.06.92-.2,3.49-.09,7a86.76,86.76,0,0,0,3.21,20.39l.65,1.58c-1.26.61-2.18,1.09-3,1.54-2.92,1.45-4.6,2.35-5.54,2.82-3.77,1.87-7.09,3.67-9.89,5.33a55.86,55.86,0,0,0-9.09,6,17.37,17.37,0,0,0-5.87,14.94,12.59,12.59,0,0,0,5.67,8.92c4.1,2.64,10.78,4,17.69,5,5,.75,10.6,1.19,13.72,1.66A57.73,57.73,0,0,1,63.47,182c.34.19,2.27,1.18,2.56.85a2,2,0,0,0,0-1.14c.65.29,1.41.57,1.59.37a3.54,3.54,0,0,0-.4-2.18,35,35,0,0,0-5-7c-2.54-2.74-5.65-5.69-12.9-8.59-5.26-2.11-10-3.49-10.08-4.58a1.13,1.13,0,0,1,0-.13c2.49.43,8.34,2.69,17-.43a32.57,32.57,0,0,0,3.84-1.59c2.87,5.25,5.88,10.15,8.77,14.67l-.24,0c-.35-.06-.49.58-.25,1.56-.37,0-.65,5.19,6.26,8l.6.22.17.25v12h0v0a63.21,63.21,0,0,0,9.39,2.6c3.69,6,7.42,12.41,9.1,16.53A25.68,25.68,0,0,1,95,216.83c.61,2.41,1.14,4.5.69,7-.12.69-.68,4.66-4,6.79a37.19,37.19,0,0,1-4.24,1.86c-7.28,3.2-15.29,10.73-24.64,21.56a26.06,26.06,0,0,1-3.54,3.45c-3.55,2.85-6.8,3.26-6.71,3.92.06.42,1.41.71,3.32.81-.7.3-1.12.51-1.08.75.1.7,3.82,1,7.73.74,18.33-1.42,35.64-16.92,37.1-18.25.36.28.75.56,1.18.83l.61.37a16.43,16.43,0,0,0,1.63,1.18c5.84,3.66,10.28,5.5,19.14,9.56.42.19.79.38,1.14.58a24.88,24.88,0,0,1,2.15,2.24c.93,1,1.39,1.8,1.69,1.68.11,0,.19-.22.23-.49l.32.36c.93,1,1.39,1.8,1.69,1.68.72-.27,0-5.44-1.84-9.93-2.28-5.73-5-7.33-13.29-19-1.51-2.14-3.27-4.71-3-7.92a10.52,10.52,0,0,1,2.88-5.81A159.56,159.56,0,0,0,126,204.43a37.87,37.87,0,0,0,8-13.72c1.67-5.23,3.41-11,4.9-17.34a10,10,0,0,0,2.12-3.31,17.28,17.28,0,0,0,1.38-4.49,13.67,13.67,0,0,0,.26-5l-.07.13c0-.12,0-.24,0-.35a14.34,14.34,0,0,1-1.46,2.26c.66-4,1.19-8.14,1.52-12.47,2.07-20.31.16-31.57-.28-34.85a59.71,59.71,0,0,1,.49-10.78c.31-1.5.54-2.88.7-4.17.74-4.53,1.3-10-1.28-12.59-.74-1.26-1.51-1.58-1.77-1.15-.13-.63,0,0-.15-.63l0-.08a8.44,8.44,0,0,0,.88-2.85v0h0c.54-3.64-.32-8.37-1.44-10.35l40.12-59.78C182.43,9.14,184.49,4,182.22,2.19Z"/><path class="cls-3" d="M180,.63C178-1,174.92.48,171,4.46L123.56,53a1.44,1.44,0,0,0-.43-.29L122,52a17.24,17.24,0,0,0-2.42-1.67C95.89,38,71.77,47.48,58.27,65.6c-6.53,8.76-11.66,24.73-12.51,38-.06.92-.2,3.49-.09,7a86.75,86.75,0,0,0,3.21,20.39l.65,1.58c-4.16,2-4.56,2.69-9.16,4.9-8.27,4-15.25,8-18.33,10.8a17.37,17.37,0,0,0-5.87,14.94,12.59,12.59,0,0,0,5.67,8.92c4.1,2.64,10.78,4,17.69,5,5,.75,10.6,1.19,13.72,1.66A57.72,57.72,0,0,1,63.47,182c.34.19,2.27,1.18,2.56.85a3.54,3.54,0,0,0-.4-2.18,35,35,0,0,0-5-7C58.12,171,55,168,47.77,165.13c-5.26-2.11-10-3.49-10.08-4.58a.87.87,0,0,1,.5-.91c1.43-.63,7.76,3.28,18-.42a32.59,32.59,0,0,0,3.84-1.59c4,7.27,8.24,13.89,12.05,19.74,1,1.56,2.17,3.29,3.37,5.09,1.75,2.63,14.8,22.14,18.4,31A25.68,25.68,0,0,1,95,216.83c.61,2.41,1.14,4.5.69,7-.12.69-.68,4.66-4,6.79a37.17,37.17,0,0,1-4.24,1.86c-7.28,3.2-15.29,10.73-24.64,21.56a26.06,26.06,0,0,1-3.54,3.45c-3.55,2.86-6.8,3.26-6.71,3.92s3.82,1,7.73.74c19.15-1.49,37.21-18.36,37.21-18.36.75.45,1.83,1.57,3.31,2.49,5.84,3.66,10.28,5.5,19.14,9.56a14.52,14.52,0,0,1,5.52,4.37c.93,1,1.39,1.8,1.69,1.68.72-.27,0-5.44-1.84-9.93-2.28-5.73-5-7.33-13.29-19-1.51-2.14-3.27-4.71-3-7.92a10.52,10.52,0,0,1,2.88-5.81,150.85,150.85,0,0,0,13.66-19.52c8-14.13,12.34-32.68,13.87-43.95,3.38-24.89,1.07-38.41.57-42.07a59.72,59.72,0,0,1,.49-10.78c.78-5.31,3.51-15.68-2.35-17.91-.14-.64,0,0-.15-.65,2-3.39.95-10.7-.52-13.29l40.12-59.78C180.2,7.58,182.26,2.48,180,.63Z"/><path class="cls-4" d="M118.21,211.14s12.42-20.2-2.67-43.78c-2.53-4-10.38-15.68-13.17-20.73-6.88-12.46-16.84-46.45-2.62-44.61,14.55,1.87,30.84,1.09,40.73-15.46.71-1.19,5.37,3.32,2.35,17.91-1.55,7.48-.68,19-.28,23.64,2.23,25.73-3.45,46.71-8.53,62.58A39.67,39.67,0,0,1,118.21,211.14Z"/><path class="cls-4" d="M154.43,130.71a55.8,55.8,0,0,0,5-4.72c4.16-4.71,7.23-8.18,10.24-13.79a42.19,42.19,0,0,0,5.49-16.59,19.51,19.51,0,0,0-.43-6.88s-.61.73-1.67,1.92a16.27,16.27,0,0,0-.51-3.55s-17.81,22-29.07,24.5l3.82,24.79Z"/><path class="cls-5" d="M147.3,136.4A111.19,111.19,0,0,0,159.42,126c4.16-4.71,7.23-8.18,10.24-13.79a42.19,42.19,0,0,0,5.49-16.59,19.52,19.52,0,0,0-.43-6.88s-19.59,22.48-30.85,25a76.07,76.07,0,0,1,2.3,11C146.7,129.26,147.3,136.4,147.3,136.4Z"/><path class="cls-6" d="M145.56,135.22c3.66-2.21,10.52-9.54,11.68-10.85,4.16-4.71,7.23-8.18,10.24-13.79A42.19,42.19,0,0,0,173,94a19.52,19.52,0,0,0-.43-6.88s-17.48,21.76-28.74,24.23"/><path class="cls-6" d="M141.24,83c-3.76,17-29.42,22.79-41.5,19"/><path class="cls-7" d="M88,84.11a3.49,3.49,0,1,1,4.32,5.49A3.49,3.49,0,0,1,88,84.11"/><path class="cls-4" d="M128.4,59.13,177.07,5.48a10.59,10.59,0,0,1,4.59-3.24c-1.19-.64-3.39.73-5.1,2.25L125.32,57.23c-.51,3.36,3.79,8.58,7.53,9-1.94-2-4.36-4.52-4.69-6.94"/><g class="cls-8"><path class="cls-9" d="M69,62.78a2,2,0,0,1,3,1.37,3.22,3.22,0,0,1-1.58,3.62,2.05,2.05,0,0,1-3-1.37A3.22,3.22,0,0,1,69,62.78"/><path class="cls-9" d="M75.87,57.27a1.72,1.72,0,0,1,2.3,1.53,2.74,2.74,0,0,1-1.78,2.78,1.72,1.72,0,0,1-2.3-1.52,2.74,2.74,0,0,1,1.79-2.78"/></g><g class="cls-8"><path class="cls-9" d="M51.89,109.24a3,3,0,0,1,4.89.35,4.72,4.72,0,0,1-.3,5.89,3,3,0,0,1-4.82-.35,4.81,4.81,0,0,1,.24-5.9"/><path class="cls-9" d="M53.5,90.82a2.69,2.69,0,0,1,4.3.31,4.29,4.29,0,0,1-.25,5.24,2.69,2.69,0,0,1-4.3-.3,4.34,4.34,0,0,1,.25-5.24"/><path class="cls-9" d="M58.79,97.56a2,2,0,0,1,3.21.25,3.08,3.08,0,0,1-.21,3.84,2,2,0,0,1-3.19-.22,3.22,3.22,0,0,1,.18-3.88"/><path class="cls-9" d="M53.1,122.11a2.06,2.06,0,0,1,3.31.23,3.27,3.27,0,0,1-.18,4,2.11,2.11,0,0,1-3.34-.2,3.28,3.28,0,0,1,.21-4.06"/></g><g class="cls-8"><path class="cls-9" d="M66.8,161.25a2.2,2.2,0,0,1,3.12-1.68,3.41,3.41,0,0,1,2.1,3.71,2.18,2.18,0,0,1-3.08,1.66,3.48,3.48,0,0,1-2.14-3.69"/><path class="cls-9" d="M72.53,168.63a1.49,1.49,0,0,1,2.11-1.14A2.37,2.37,0,0,1,76.09,170,1.53,1.53,0,0,1,74,171.19a2.37,2.37,0,0,1-1.45-2.56"/></g><path class="cls-9" d="M174.46,5.18l-1.4,1.45c.64,1.6,3.48,4.08,4.69,4.25C177,9.8,175,7.72,174.46,5.18M162.14,17.62l-1.63,1.66c.71,2.5,3.67,5.67,5.87,5.58A14.19,14.19,0,0,1,162.14,17.62Zm-12.79,13-2.11,2.15c1.46,3.68,5.95,7.26,7.58,7.05C153.08,38.34,150,33.75,149.36,30.6ZM136.42,43.71,134,46.14c1.51,4.15,6.53,8.2,9.27,8.28C140.42,52,137.07,47.44,136.42,43.71Z"/><path class="cls-10" d="M62,158.86c3.63,6.48,8.84,14.68,12.36,20.08,1,1.56,2.17,3.29,3.37,5.09,1.75,2.63,14.8,22.14,18.4,31a25.71,25.71,0,0,1,1.12,3.42c.61,2.41,1.14,4.5.69,7-.12.69-.68,4.66-4,6.79a37.16,37.16,0,0,1-4.24,1.86c-7.28,3.2-15.29,10.73-24.64,21.56a26.06,26.06,0,0,1-3.54,3.45c-3.55,2.86-6.8,3.26-6.71,3.92s3.82,1,7.73.74c19.15-1.49,37.21-18.36,37.21-18.36.76.45,1.82,1.57,3.31,2.49,5.84,3.66,10.28,5.5,19.14,9.56a14.52,14.52,0,0,1,5.52,4.37c.93,1,1.39,1.8,1.69,1.68.72-.27,0-5.44-1.84-9.93-2.28-5.73-5-7.33-13.29-19-1.51-2.14-3.27-4.71-3-7.92a10.52,10.52,0,0,1,2.88-5.81,150.88,150.88,0,0,0,13.66-19.52c8-14.13,12.34-32.68,13.87-43.95,3.38-24.89,1.07-38.41.57-42.07a59.72,59.72,0,0,1,.49-10.78c.78-5.31,3.51-15.68-2.35-17.91-.14-.64,0,0-.15-.65,2-3.39.95-10.7-.52-13.29l40.12-59.78c2.52-3.71,4.58-8.8,2.3-10.65-1.94-1.58-5.06-.15-9,3.83L125.8,54.58a1.44,1.44,0,0,0-.43-.29l-1.13-.75a17.24,17.24,0,0,0-2.42-1.67C98.13,39.51,74,49,60.5,67.16,54,75.92,48.84,91.89,48,105.12c-.06.92-.2,3.49-.09,7a81,81,0,0,0,3,19.71"/><path class="cls-6" d="M69.45,150.32a23.3,23.3,0,0,1-11.67,8.13c-10.28,3.7-16.62-.21-18,.42a.87.87,0,0,0-.5.91c0,1.09,4.82,2.47,10.08,4.58,7.24,2.9,10.35,5.85,12.89,8.59a35,35,0,0,1,5,7,3.55,3.55,0,0,1,.4,2.18c-.29.33-2.22-.66-2.56-.85A57.73,57.73,0,0,0,54.79,178c-3.12-.47-8.77-.91-13.72-1.66-6.9-1-13.58-2.39-17.69-5a12.59,12.59,0,0,1-5.67-8.92,17.37,17.37,0,0,1,5.87-14.94c3.08-2.76,9.22-6.51,17.44-10.58,1.7-.84,5.79-3.09,15.31-7.47"/><path class="cls-2" d="M123,163.12s-3-3.53-6.52-3.32l-7,.74a2.07,2.07,0,0,1-1.66.94,2.28,2.28,0,0,1-1.56-.6l-3.11.33.08.78-.93.1.48,4.52,3.09-.33a2.59,2.59,0,0,1,3.17-.34l.18,1.66.77,1.2.55,5.23.7,6.57a18.34,18.34,0,0,0-.41,2.93,51.89,51.89,0,0,0,1,7.18,20.4,20.4,0,0,1-.31,4.6,1.17,1.17,0,0,0,1.43,1.37l3.8-.39a1.44,1.44,0,0,0,.8-.87h.05s1.3-.55.62-1.68a19.49,19.49,0,0,1-1.32-4.11s.21-5.55-.64-7.54-1.16-2.6-1.16-2.6l-.08-.73-1.17-11.07.6-1.18a5.64,5.64,0,0,1,.69-2.85,3.55,3.55,0,0,1,2.84-.34,20.15,20.15,0,0,1,3.7,1.26l.45-.58a10.32,10.32,0,0,0-.79-.79,10.79,10.79,0,0,1,1.18.5Z"/><path class="cls-11" d="M115,178.77l-1.17-11.07.6-1.18s-.24-5.09,4.38-4.07a20.15,20.15,0,0,1,3.7,1.26l.45-.58s-3-3.53-6.52-3.32l-7,.74a2.07,2.07,0,0,1-1.66.94,2.28,2.28,0,0,1-1.56-.6l-3.11.33.48,4.52,3.09-.33a2.59,2.59,0,0,1,3.17-.34l.18,1.66.77,1.2.55,5.23.6,5.71Z"/><path class="cls-5" d="M112,178.88l.09.86a18.34,18.34,0,0,0-.41,2.93,52,52,0,0,0,1,7.18,20.38,20.38,0,0,1-.31,4.6,1.17,1.17,0,0,0,1.43,1.37l3.8-.39s1.3-.55.62-1.68a19.48,19.48,0,0,1-1.32-4.11s.21-5.55-.64-7.54-1.16-2.6-1.16-2.6l-.08-.73Z"/><path class="cls-6" d="M102.27,162.09l.48,4.52,3.09-.33a2.59,2.59,0,0,1,3.17-.34l.18,1.66.77,1.2.55,5.23.7,6.57a18.34,18.34,0,0,0-.41,2.93,52,52,0,0,0,1,7.18,20.38,20.38,0,0,1-.31,4.6,1.17,1.17,0,0,0,1.43,1.37l3.8-.39s1.3-.55.62-1.68a19.48,19.48,0,0,1-1.32-4.11s.21-5.55-.64-7.54-1.16-2.6-1.16-2.6L113,168.57l.6-1.18s-.24-5.09,4.38-4.07a20.15,20.15,0,0,1,3.7,1.26l.45-.58s-3-3.53-6.52-3.32l-7,.74a2.07,2.07,0,0,1-1.66.94,2.28,2.28,0,0,1-1.56-.6Z"/><path class="cls-2" d="M142.67,160.55c-4.72,9.19-19.8,12.55-23.53,13.44a71.64,71.64,0,0,1-14.8,1.94c-.12,0-.31,1.47-.43,1.47a155,155,0,0,1-27-1.95c-.3,0,.09-1.51-.2-1.56-4.21-.69-7.1-1.31-8-1.38-.37,0-.68,5.18,6.25,8,9.55,3.89,48.87,5.63,64.23-8.39C141.62,169.94,143.3,164.18,142.67,160.55Z"/><path class="cls-12" d="M142.29,161.84c-4.72,9.19-19.8,12.55-23.53,13.44-21.69,5.16-47.47-1.24-50.4-1.47-.37,0-.68,5.18,6.25,8,9.55,3.89,48.87,5.63,64.23-8.39C141.25,171.23,142.92,165.48,142.29,161.84Z"/><path class="cls-6" d="M76.5,173.69c-3.41-.59-6.14-1.14-7.89-1.43-1-.17-.29,5.56,6.65,8.39,9.55,3.89,48.87,5.63,64.23-8.39,2.4-2.19,3.69-8.3,3.06-11.94-4.72,9.19-20.21,12.66-23,13.41a69.56,69.56,0,0,1-15.22,2.2"/><path class="cls-2" d="M95.44,160.32a4.82,4.82,0,0,0-1.23.26,3.65,3.65,0,0,0-3.39,3.93l1.59,13.21h4.16l0-.22h.89l1.64-13.21S99.55,160.73,95.44,160.32Z"/><path class="cls-2" d="M88.49,174.22V174h-.39l.27-9.22a2.26,2.26,0,0,0-2.15-2.62h0a2.75,2.75,0,0,0-.89-.2,2.54,2.54,0,0,0-2.73,2.3l-.29,9.6-1.18,0-.07,2.88.89.09v.11l7.33.77.08-3.47Z"/><path class="cls-11" d="M83.22,174.1l.29-9.6a2.54,2.54,0,0,1,2.73-2.3,2.26,2.26,0,0,1,2.15,2.62l-.28,9.4,1.28,0-.08,3.47L82,176.95l.07-2.88Z"/><path class="cls-13" d="M91.74,164.28l1.59,13.21H97.5l1.64-13.21s.41-3.55-3.7-4C95.44,160.32,91.58,160.48,91.74,164.28Z"/><path class="cls-6" d="M82.33,173.9l.29-9.6a2.54,2.54,0,0,1,2.73-2.3,2.26,2.26,0,0,1,2.15,2.62l-.28,9.4,1.28,0-.08,3.47-7.33-.77.07-2.88Z"/><path class="cls-6" d="M90.82,164.51l1.59,13.21h4.16l1.64-13.21s.41-3.55-3.7-4C94.52,160.55,90.67,160.7,90.82,164.51Z"/><path class="cls-2" d="M76.41,175.78v17.55s13.88,5.4,27.76,3.47V177.63a67.42,67.42,0,0,1-13.71.08C79.88,176.74,76.41,175.78,76.41,175.78Z"/><path class="cls-2" d="M75.4,176.73v17.55s13.88,5.4,27.76,3.47V178.59a67.42,67.42,0,0,1-13.71.08C78.87,177.7,75.4,176.73,75.4,176.73Z"/><path class="cls-12" d="M75.38,176.7v17.55s13.88,5.4,27.76,3.47V178.55a67.42,67.42,0,0,1-13.71.08C78.85,177.67,75.38,176.7,75.38,176.7Z"/><path class="cls-6" d="M76.5,173.69"/><path class="cls-6" d="M76.53,173.94v19.32s13.88,5.4,27.76,3.47V176.05"/><path class="cls-6" d="M76.71,175.71s16.3,3.1,27.2,1.85"/></g></g></svg>