<svg xmlns="http://www.w3.org/2000/svg" viewBox="0 0 17.34 16.57"><defs><style>.cls-1{fill:#21aaad;opacity:0.4;}</style></defs><title>GitHub - footer</title><g id="Layer_2" data-name="Layer 2"><g id="Footer"><path class="cls-1" d="M10.72,12.3c.16,0,.45-.11.74-.19A4,4,0,0,0,13.81,6.3a3.92,3.92,0,0,1-.24-1.61c-.06-1.22-.44-1.54-1.51-1a3.74,3.74,0,0,1-2.71.39A3.19,3.19,0,0,0,8,4.09a3.94,3.94,0,0,1-2.81-.39c-1-.55-1.34-.24-1.44.95a7.23,7.23,0,0,1-.47,2.09A4,4,0,0,0,5.65,12c.38.13.77.23,1.16.34-.57,1.49-1.7,1.65-2.71.42-.79-1-1-1-1.78-.82,2,2.79,2,2.79,4,2.81a.52.52,0,0,1,.08.18c.09,1.84,0,1.94-1.71,1.11A8.42,8.42,0,0,1,.25,6.54a8.7,8.7,0,0,1,16.95.4,8.46,8.46,0,0,1-5.05,9.35c-1.16.49-1.22.43-1.25-.84C10.87,14.45,10.79,13.45,10.72,12.3Z"/></g></g></svg>