<svg xmlns="http://www.w3.org/2000/svg" viewBox="0 0 43.87 43.91"><defs><style>.cls-1{fill:#21aaad;opacity:0.6;}.cls-2{fill:#31d3db;}.cls-2,.cls-3,.cls-4{opacity:0.4;}.cls-3,.cls-5{fill:#383c42;}.cls-4{fill:#afb1b3;}</style></defs><title>Self Service - icon 4</title><g id="Layer_2" data-name="Layer 2"><g id="Narrative_section" data-name="Narrative section"><rect class="cls-1" x="1.22" y="23.13" width="42.65" height="5.65" rx="0.4" ry="0.4"/><path class="cls-2" d="M4.17,30.55H16.71V34H26V30.55H41.17V43.41a.5.5,0,0,1-.5.5h-36a.5.5,0,0,1-.5-.5Z"/><path class="cls-3" d="M41.12,14.81,25.84,6,29.18.21c5.33,2.33,9.69,6.92,13.74,11.49Z"/><polygon class="cls-4" points="22.19 20.83 20.79 23.25 18.86 23.25 10.84 11.35 9.34 10.5 6.73 6.64 11.42 3.48 14.02 7.34 14.25 9.05 22.19 20.83"/><polygon class="cls-4" points="37.05 17.69 37.05 23.73 27.58 23.73 31.07 17.69 37.05 17.69"/><path class="cls-5" d="M3.25,43.38h37a.43.43,0,0,0,.43-.43V30h2.4a.43.43,0,0,0,.43-.43V23.95a.43.43,0,0,0-.43-.43H36V17.91a.43.43,0,0,0-.43-.43H30.3l3.24-5.61,6.11,3.53a.44.44,0,0,0,.32,0,.43.43,0,0,0,.26-.2L42,12.13a.42.42,0,0,0-.05-.5C37.93,7.06,33.52,2.41,28.1,0a.43.43,0,0,0-.54.18L24.22,6a.43.43,0,0,0,.16.58l4,2.29L21.51,20.72,14,9.57,13.79,8a.42.42,0,0,0-.07-.19l-2.6-3.86a.43.43,0,0,0-.59-.12L5.84,7a.43.43,0,0,0-.12.59l2.6,3.86a.43.43,0,0,0,.15.13l1.43.82,7.5,11.12H11.92L7.7,14.84a.43.43,0,0,0-.25-.22.43.43,0,0,0-.52.59l4,8.3H7l0-.07-1.75-4A.42.42,0,0,0,5,19.25a.43.43,0,0,0-.32,0,.43.43,0,0,0-.22.56l1.63,3.7H.43a.43.43,0,0,0-.43.43V29.6A.43.43,0,0,0,.43,30h2.4V43A.43.43,0,0,0,3.25,43.38Zm.43-.85V30h13v4.2a.43.43,0,0,0,.43.43h9.25a.43.43,0,0,0,.43-.43V30h13V42.53ZM17.55,33.8V30h8.4V33.8ZM35.11,18.33v5.19h-8.3l3-5.19ZM25.17,6.05,28.11,1l.5.25c4.82,2.38,8.84,6.63,12.24,10.43l.29.32-1.43,2.48ZM29.09,9.3l3.71,2.14-7,12.08H20.88ZM10.54,11.81a.42.42,0,0,0-.14-.13L9,10.86,6.67,7.46l4-2.68L13,8.23l.21,1.58a.42.42,0,0,0,.07.18L21,21.55l-1.14,2H18.44l0-.05ZM.85,29.17v-4.8H42.65v4.8Z"/></g></g></svg>