<svg xmlns="http://www.w3.org/2000/svg" viewBox="0 0 19.14 15.89"><defs><style>.cls-1{opacity:0.4;}.cls-2{fill:#21aaad;}</style></defs><title>twiter - footer</title><g id="Layer_2" data-name="Layer 2"><g id="Footer"><g class="cls-1"><path class="cls-2" d="M18.84,1.86a7.56,7.56,0,0,1-1.32.44A4.11,4.11,0,0,0,18.6.58a.22.22,0,0,0-.31-.25,7.6,7.6,0,0,1-2,.83l-.13,0A.53.53,0,0,1,15.79,1a4.12,4.12,0,0,0-2.72-1,4.4,4.4,0,0,0-1.31.2,4,4,0,0,0-2.7,2.87A4.4,4.4,0,0,0,9,4.59c0,.06,0-.09,0-.07s-.07-.13-.12-.13h0A9.54,9.54,0,0,1,1.38.59C1.28.47,1.1.58,1,.71A4.29,4.29,0,0,0,.47,2.82a4.17,4.17,0,0,0,1.22,3,3.66,3.66,0,0,1-.94-.35c-.14-.08-.32-.13-.32,0,0,1.66.94,2.74,2.4,3.65H2.74c-.23,0-.46.14-.69.09s-.29.2-.25.36a4.18,4.18,0,0,0,3.26,2.86A7.62,7.62,0,0,1,.8,13.73H.32A.32.32,0,0,0,0,14a.33.33,0,0,0,.16.36,11.31,11.31,0,0,0,5.68,1.54,11.46,11.46,0,0,0,4.86-1,10.72,10.72,0,0,0,3.56-2.66,11.67,11.67,0,0,0,2.18-3.64,11.51,11.51,0,0,0,.75-4V4.52A.7.7,0,0,1,17.46,4a8.15,8.15,0,0,0,1.64-1.8.22.22,0,0,0-.27-.32Zm0,0"/></g></g></g></svg>