<svg xmlns="http://www.w3.org/2000/svg" viewBox="0 0 341.03 180.83"><defs><style>.cls-1{fill:#f2f2f2;}.cls-2,.cls-4{fill:#fff;}.cls-3,.cls-5{fill:#31d3db;opacity:0.5;}.cls-10,.cls-3,.cls-4,.cls-7,.cls-9{fill-rule:evenodd;}.cls-10,.cls-6{fill:none;stroke:#383c42;stroke-linecap:round;stroke-linejoin:round;stroke-width:1.5px;}.cls-7{fill:#383c42;}.cls-8{opacity:0.6;}.cls-11,.cls-9{fill:#21aaad;}.cls-11{opacity:0.7;}</style></defs><title>Your data, Your Tools</title><g id="Layer_2" data-name="Layer 2"><g id="Gnarly_section" data-name="Gnarly section"><circle class="cls-1" cx="103.27" cy="90.42" r="90.42"/><path class="cls-2" d="M339.91,55.53q0-.16,0-.31a3.57,3.57,0,0,0,.2-.49,4.66,4.66,0,0,0-.16-3c-2-4.7-30.5-1.47-52.39-2.12-7.8-.23-19,2.84-20,1.61-3.25-3.73.15-7.57-4.85-8.73-7.65-1.77-31.16,2.85-90,29.47l-1.52-1.62-.87.88h0l.87-.88c-4.19-4.7-12.38-12.26-16.54-16.09a63.11,63.11,0,0,0-15.63-10c-2.84-1.36-5-2.17-5.79-2.46C122,37.66,107,36.11,97.4,38.31c-19.81,4.55-36.57,20.13-35,44.12A28,28,0,0,0,63,85.93c.07.4.3.87.37,1.27,0,.14,0,.08.06.23L7,109.35c-4.7,1.79-7,3.83-6.4,6a2.14,2.14,0,0,0,.25.55,2.46,2.46,0,0,0,0,1.11c.7,2.55,5.64,2.7,9.61,2l63.76-11.37c1.61,2.15,7.43,5.77,10.94,5.38l.12.09h0c0,.07,0,.14,0,.21-.27.23-.18.92.48,1.83a4.55,4.55,0,0,0,.35.68l-4.38-3.2c-8.18,6.75-19,13.81-19,13.81a14.44,14.44,0,0,0,2,.69c-1.12.74-1.78,1.15-1.78,1.15a21.39,21.39,0,0,0,7.41,1.5A46.24,46.24,0,0,0,89.2,126.3,37.4,37.4,0,0,0,95,123.8l-1.57-1.2,1.22-.59-4-2.91a37.62,37.62,0,0,0,5,1.6c1.12.33,2.34.65,3.69.94a58.33,58.33,0,0,1,8.71,3.3l-.92.79.52.33c-.37-.05-.53,0-.42.07s.31.32.65.62c-.25,0-.34,0-.25.11.45.47,3.65,3.63,10.33,5a167,167,0,0,0,17.66,7.49c14.68,5.72,28.38,8.13,39.74,9.72,13.85,1.94,39.15-5,39.8-5.18h0a7.73,7.73,0,0,1,1.78.42c3,1.11,4.51,3.77,5.76,6,6.87,12.38,7.12,15.49,11.23,20,3.23,3.52,7.49,6.41,8,5.89.07-.07.07-.2,0-.38.76.42,1.29.59,1.47.43s-.24-.94-.77-2.22a14.33,14.33,0,0,1-1.52-6.78c.18-9.62.45-14.35-.3-21.11-.19-1.71-.73-3.15-.8-4,0,0,22.73-8.82,32.25-25.21,1.94-3.34,3.24-6.8,2.65-7.18-.23-.15-.67.24-1.4.88.09-.49.08-.83-.08-.93-.55-.36-2.3,2.35-6.36,4.28a25.71,25.71,0,0,1-4.58,1.67c-13.63,3.67-23.76,7.56-29.72,12.66a36.66,36.66,0,0,1-3.47,3,8.15,8.15,0,0,1-4,1.13,12.91,12.91,0,0,1-2.25-.46c-2.44-.68-4.07-2-6-3.62a25.37,25.37,0,0,1-2.56-2.47c-5.93-6.57-16.71-24.67-19.26-29a45.9,45.9,0,0,1,9.7-4c7-1.47,8.59-.19,23.5.52,35.14,1.67,36-5,52-.17,5.31,1.59,12.34,4.44,16.1,1.13,3.46-3.05,1.5-9,5.67-11.68,1.82-1.16,3-.58,8.46-.46,8.52.18,15.14.32,17.22-3.06a7.79,7.79,0,0,0,.7-4.86c1-3.21-.79-7.81-.92-8.15a13.85,13.85,0,0,0-.68-1.47c1.46-.6,4.27-.61,8.36-2.38,3.18-1.37,4.19-2.54,4.57-3.71a4.65,4.65,0,0,0-.13-3Z"/><path class="cls-3" d="M171.14,70.35c.28.34,22.78,24.06,23.86,25.9,1.58,2.68,13.34,22.64,19.63,29.61a25.38,25.38,0,0,0,2.56,2.47c1.88,1.57,3.51,2.94,6,3.62.66.19,4.43,1.39,7.74-.61a36.68,36.68,0,0,0,3.47-3c6-5.1,16.09-9,29.72-12.66a25.72,25.72,0,0,0,4.58-1.67c4.06-1.93,5.81-4.65,6.36-4.28s-.71,3.84-2.65,7.18c-9.53,16.39-32.25,25.21-32.25,25.21.07.86.61,2.29.8,4,.75,6.76.48,11.49.3,21.11a14.33,14.33,0,0,0,1.52,6.78c.53,1.28,1,2,.77,2.22-.55.52-4.81-2.37-8-5.89-4.11-4.48-4.36-7.6-11.23-20-1.26-2.26-2.78-4.92-5.76-6a10.38,10.38,0,0,0-6.4.07,148.85,148.85,0,0,1-23.2,3.78c-16,1.09-34.34-3-45-6.49-14.14-4.6-23-10.82-29.14-14.25"/><path class="cls-4" d="M110.12,126.46c2.47,1.33,4.57,2.56,6,3.38,21.91,13,43,16.94,59.28,19.22,14,2,39.83-5.19,39.83-5.19s-39.53,2.54-52.67-21.23c-1.88-3.4-5.68-8.07-8.51-12.42"/><path class="cls-5" d="M95,123.8a37.39,37.39,0,0,1-5.78,2.51,46.24,46.24,0,0,1-18.84,3.46,21.39,21.39,0,0,1-7.41-1.5A175.05,175.05,0,0,0,82.17,114"/><path class="cls-6" d="M94.62,122a56.28,56.28,0,0,1-5.67,2.45,46.24,46.24,0,0,1-18.84,3.46,21.39,21.39,0,0,1-7.41-1.5s10.86-7.06,19-13.81"/><path class="cls-3" d="M115.17,126.89c-3.77-2-6.1-3.46-7.23-4.15a53.71,53.71,0,0,0-9.06-3.5c-4.65-1.28-13.91-.93-13.63-6.57-.47-.34,0,.32-.46,0-3.51.39-9.35-4-10.87-6.68L10.16,117.32c-4,.73-8.91.58-9.61-2-.6-2.17,1.71-4.22,6.4-6L63.39,87.43c-.06-.14-.07-.08-.06-.23-.07-.4-.3-.87-.37-1.27a27.94,27.94,0,0,1-.54-3.51c-1.59-24,15.17-39.57,35-44.12,9.58-2.2,24.59-.64,35.79,3.46.78.28,2.95,1.1,5.79,2.46a63.11,63.11,0,0,1,15.63,10c4.16,3.83,12.35,11.38,16.54,16.09"/><path class="cls-4" d="M152.88,110.91c-.53-.75-1-1.49-1.48-2.2-7.19-11.27-28.51-26.44-34.3-17.05-6.8,11-14.54,18.55-31.65,21.55-1.23.22.79,5.63,13.9,8.43,4.37.93,9.78,3.33,14,5.44"/><path class="cls-6" d="M115.21,93.94c-4.65,10.38-24.6,23.45-35.56,17.63"/><path class="cls-7" d="M104.09,78.7a3.14,3.14,0,1,0,3,5.55,3.14,3.14,0,0,0-3-5.55"/><path class="cls-4" d="M67.24,93.34,5.41,114a9.52,9.52,0,0,0-4.33,2.6c-.09-1.21,1.83-2.53,3.7-3.38l62-23.09c3,.8,5.69,6.23,4.7,9.47-.91-2.31-2.14-5.23-4-6.37"/><g class="cls-8"><path class="cls-9" d="M99.82,42.8a1.82,1.82,0,0,0,.05,2.95,2.9,2.9,0,0,0,3.55,0,1.85,1.85,0,0,0-.05-2.95,2.9,2.9,0,0,0-3.56,0"/><path class="cls-9" d="M92.78,46.5a1.55,1.55,0,0,0,.42,2.44,2.46,2.46,0,0,0,2.94-.46A1.55,1.55,0,0,0,95.72,46a2.46,2.46,0,0,0-2.94.46"/></g><g class="cls-8"><path class="cls-9" d="M138.6,49.9a2.74,2.74,0,0,0-1.48,4.15,4.24,4.24,0,0,0,5,1.88,2.72,2.72,0,0,0,1.46-4.1,4.33,4.33,0,0,0-4.94-1.94"/><path class="cls-9" d="M122.85,44.55a2.42,2.42,0,0,0-1.31,3.65A3.86,3.86,0,0,0,126,49.9a2.42,2.42,0,0,0,1.31-3.65,3.9,3.9,0,0,0-4.41-1.7"/><path class="cls-9" d="M126.49,51.35a1.82,1.82,0,0,0-1,2.74,2.78,2.78,0,0,0,3.24,1.22,1.79,1.79,0,0,0,1-2.7,2.9,2.9,0,0,0-3.26-1.25"/><path class="cls-9" d="M148.76,55.56a1.86,1.86,0,0,0-1,2.81,2.94,2.94,0,0,0,3.39,1.32,1.9,1.9,0,0,0,1-2.83,3,3,0,0,0-3.42-1.3"/></g><path class="cls-9" d="M6.12,111.72c1.88,1.4,2.89,3.75,3.5,4.77.31-1.06-.71-4.3-1.8-5.4l-1.7.63m19.14.49c.87-1.78-.67-5.37-2.47-6.86l-2,.74A12.76,12.76,0,0,1,25.25,112.2Zm16.48-4.11c.76-1.27-.56-6.26-3.06-8.8l-2.53,1A18.89,18.89,0,0,1,41.73,108.09ZM58,103.88c.92-2.29-.59-7.89-3.46-10.63l-2.88,1.1C54.46,96.24,57,100.67,58,103.88Z"/><path class="cls-10" d="M110.65,126.52c-1-.6-1.74-1.07-2.24-1.37a53.72,53.72,0,0,0-9.06-3.5c-4.65-1.28-14.19-2.79-13.9-8.43a3.7,3.7,0,0,1-.3-.22c-3.51.39-9.33-3.23-10.94-5.38L10.45,119c-4,.73-8.91.58-9.61-2-.6-2.17,1.71-4.22,6.4-6L64.43,89.55a1.3,1.3,0,0,1-.09-.46l-.21-1.2a15.51,15.51,0,0,1-.5-2.6c-1.59-24,15-40.4,34.81-45,9.58-2.2,24.59-.64,35.79,3.46.78.28,2.95,1.1,5.79,2.46a63.3,63.3,0,0,1,15.63,10c3.86,3.55,10.73,10.65,15,15.32"/><path class="cls-10" d="M170.32,71.36c.58.69,1.11,1.33,1.59,1.9,5.79,7.08,21.82,22.65,22.9,24.48,1.58,2.68,12,21.08,18.34,28.05a25.36,25.36,0,0,0,2.56,2.47c1.88,1.57,3.51,2.94,6,3.62.66.18,4.43,1.39,7.74-.61a36.66,36.66,0,0,0,3.47-3c6-5.1,16.09-9,29.72-12.66a25.72,25.72,0,0,0,4.58-1.67c4.06-1.93,5.81-4.65,6.36-4.28s-.71,3.84-2.65,7.18c-9.53,16.39-32.25,25.21-32.25,25.21.07.86.61,2.29.8,4,.75,6.76.48,11.49.3,21.11a14.33,14.33,0,0,0,1.52,6.78c.53,1.28,1,2,.77,2.22-.55.52-4.81-2.37-8-5.89-4.11-4.48-4.36-7.6-11.23-20-1.26-2.26-2.78-4.92-5.76-6a10.38,10.38,0,0,0-6.4.07,148.87,148.87,0,0,1-23.2,3.78c-16,1.09-34.34-3-45-6.49-19.38-6.3-30.28-12.72-35.23-15.92"/><path class="cls-2" d="M171.51,72.48c.17,7-4.25,17-9.86,26.82-20.85,36.53-54.52,25.92-53.27,27.23S127.61,144.3,175.2,108c15.26-11.65,26.56-16.68,30.26-17.5,7-1.54,8.58-.28,23.5.27,35.16,1.3,35.94-5.34,52-.73,5.33,1.53,12.39,4.31,16.11,1,3.43-3.09,1.4-9,5.54-11.74,1.8-1.18,3-.61,8.46-.55,8.53.09,15.14.16,17.18-3.24,1.88-3.13-.31-8.88-.45-9.26-1-2.44-2-3.17-1.63-4.26.67-1.75,3.88-1,9.36-3.42,3.17-1.41,4.17-2.58,4.53-3.76a4.66,4.66,0,0,0-.16-3c-2-4.71-30.5-1.47-52.39-2.12-7.8-.23-19,2.84-20,1.61-3.25-3.73.15-7.57-4.85-8.73C255,40.71,231.21,45.4,171.51,72.48Z"/><path class="cls-11" d="M171.3,73c.17,7-4.63,17.54-10.24,27.37-20.85,36.53-54.69,25.24-53.44,26.55s19.61,19.37,67.21-17c15.26-11.65,26.56-16.68,30.26-17.5,7-1.54,8.58-.28,23.5.27,35.16,1.3,35.94-5.34,52-.73,5.33,1.53,12.39,4.31,16.11,1,3.43-3.09,1.4-9,5.54-11.74,1.8-1.18,3-.61,8.46-.55,8.53.09,15.14.16,17.18-3.24,1.88-3.13-.31-8.88-.45-9.26-1-2.44-2-3.17-1.63-4.26.67-1.75,3.88-1,9.36-3.42,3.17-1.41,4.17-2.58,4.53-3.76a4.66,4.66,0,0,0-.16-3c-2-4.71-30.5-1.47-52.39-2.12-7.8-.23-19,2.84-20,1.61-3.25-3.73.15-7.57-4.85-8.73C254.58,42.65,231,45.88,171.3,73Z"/><path class="cls-6" d="M171.3,73c.09,7-5,18.37-10.68,28.14-21.24,36.31-54.63,23.73-53.39,25.05s19.42,19.77,67.4-16.07C190,98.58,201.37,93.67,205.07,92.9c7-1.47,8.59-.19,23.5.52,35.14,1.67,36-5,52-.17,5.31,1.59,12.34,4.44,16.1,1.13,3.46-3.05,1.5-9,5.67-11.68,1.82-1.16,3-.58,8.46-.46,8.52.18,15.14.32,17.22-3.06,1.92-3.11-.21-8.88-.35-9.26-.93-2.45-2-3.19-1.58-4.28.69-1.74,3.89-.94,9.39-3.32,3.18-1.37,4.19-2.54,4.57-3.71a4.66,4.66,0,0,0-.13-3c-2-4.73-30.48-1.79-52.37-2.67-7.8-.31-19,2.64-20.06,1.4-3.21-3.77.23-7.57-4.75-8.78C255.09,43.68,231.28,46.51,171.3,73Z"/><path class="cls-6" d="M183.68,75.06a122.27,122.27,0,0,1,75.12-20.3"/><path class="cls-6" d="M178.24,93A163.68,163.68,0,0,1,214.4,78.19a167.38,167.38,0,0,1,73.85-3.14"/><path class="cls-2" d="M152.32,112.41c-2.55,2.35-8.72,5.57-16.87,5.78-.89,0-3-.2-4.28-.31-6.66-.57-7.18-1-10.32-1.21-1.67-.1-11.25-1.89-18,1.86-.36.2-1,.58-1.18.4-.6-.63,5.2-8.09,11.7-13.63,4.59-3.91,12.56-10.71,24.49-12a38.14,38.14,0,0,1,15.83,1.75"/><path class="cls-2" d="M102.63,117.41s6.27-2.76,18.65-.8c5.4.86,8.49,1.36,11,1.57,9.49.78,15.2-1,19.28-5.74a9.48,9.48,0,0,0,2.32-3.78c.68-3.79,0-7.24-5.37-10.11-1.87-1-4.07-1.87-9.4-1.5a46.94,46.94,0,0,0-21.52,7.33C109.75,108.93,102.63,117.41,102.63,117.41Z"/><path class="cls-5" d="M102.63,117.41s6.27-2.76,18.65-.8c5.4.86,8.49,1.36,11,1.57,9.49.78,15.2-1,19.28-5.74a9.48,9.48,0,0,0,2.32-3.78c.68-3.79,0-7.24-5.37-10.11-1.87-1-4.07-1.87-9.4-1.5a46.94,46.94,0,0,0-21.52,7.33C109.75,108.93,102.63,117.41,102.63,117.41Z"/><path class="cls-6" d="M152.32,112.41c-2.55,2.35-8.72,5.57-16.87,5.78-.89,0-3-.2-4.28-.31-6.66-.57-7.18-1-10.32-1.21-1.67-.1-11.25-1.89-18,1.86-.36.2-1,.58-1.18.4-.6-.63,5.2-8.09,11.7-13.63,4.59-3.91,12.56-10.71,24.49-12a38.14,38.14,0,0,1,15.83,1.75"/></g></g></svg>