<svg xmlns="http://www.w3.org/2000/svg" viewBox="0 0 7.54 16.13"><defs><style>.cls-1{fill:#21aaad;fill-rule:evenodd;opacity:0.4;}</style></defs><title>facebook - footer</title><g id="Layer_2" data-name="Layer 2"><g id="Footer"><path id="_Path_" data-name="&lt;Path&gt;" class="cls-1" d="M1.67,12.08c0-1.26,0-2.53,0-3.79,0-.21-.06-.28-.27-.27C1,8,.61,8,.22,8,.06,8,0,8,0,7.82Q0,6.64,0,5.46c0-.15,0-.2.2-.2.4,0,.81,0,1.21,0,.23,0,.28-.07.28-.29q0-.9,0-1.8a3.45,3.45,0,0,1,.65-2A2.8,2.8,0,0,1,4.57,0C5.5,0,6.44,0,7.37,0c.13,0,.17,0,.17.17q0,1.2,0,2.39c0,.14,0,.19-.18.18H6a.89.89,0,0,0-1,.9c0,.47,0,.95,0,1.42,0,.17.1.16.21.16.68,0,1.36,0,2,0,.2,0,.27,0,.24.25-.09.79-.16,1.59-.23,2.38,0,.18-.1.21-.26.21H5.4C5,8.06,5,8,5,8.39c0,2.47,0,4.94,0,7.42,0,.26-.07.33-.32.32q-1.38,0-2.77,0c-.26,0-.3-.08-.3-.31C1.67,14.57,1.67,13.33,1.67,12.08Z"/></g></g></svg>