<svg xmlns="http://www.w3.org/2000/svg" viewBox="0 0 84.19 82.04"><defs><style>.cls-1{fill:#383c42;}.cls-1,.cls-2,.cls-3,.cls-4{fill-rule:evenodd;}.cls-2{fill:#31d3db;}.cls-3{fill:#fff;}.cls-4{fill:#21aaad;}</style></defs><title>Gnarly - footer</title><g id="Layer_2" data-name="Layer 2"><g id="Footer"><path class="cls-1" d="M34.43,46.11c-1.7,4.44-6.65,6.55-8,5.8-.69-.38.06-1.78.08-2.74-1,.39-2.66,1.12-3.67,1.54a10.19,10.19,0,0,1,.06,15.55c4.14,6.13,2,11.42-3.67,15.55l-.36.24-.12-.41a19.36,19.36,0,0,0-3.93-7.71c-1-1.16-2.15-2.23-3.28-3.29-1.48-1.4-2.9-2.82-4.24-4.34C1.63,60.27-.6,49.88.13,41.85A31.3,31.3,0,0,1,3.71,30.07a37.09,37.09,0,0,1,5.74-8A42.35,42.35,0,0,1,28,10.46c6.16-1.83,13.2-2.15,19.06.87a21.41,21.41,0,0,1,3.16,2c.49.45,1,.93,1.46,1.38a.61.61,0,0,1,.16.16L79.27.89c2.27-1.12,4-1.12,4.66-.31S83.61,3.49,82,4.66l-23.48,17a5.35,5.35,0,0,1-1.3,4.5c3.14,1.08.37,5.68-1,7.32-3.93,4.66-11.13,8.31-17.54,11-1.72.73-2.7,1-4.24,1.62M19.12,52.34c-2.57,1.16-7.56,3.77-7.08,6.59.65,1.74,2.68-.1,3.43-.83A14.82,14.82,0,0,0,19.12,52.34Z"/><path class="cls-2" d="M55.92,30c1.76-2.21.53-3.49-.69-2.25a10.74,10.74,0,0,1-9.35,2.78c-4.82-.81-5-1.54-4.22-2.25a13.09,13.09,0,0,0,15-5.11c1.18-1.7-2.78-3.06-5.13-6.23C40.33,1.81,5.19,15,1.83,41.53c-1,8,1.2,16.79,6.69,23,4.1,4.66,8.56,6.59,11.09,13.91,4.91-4.22,4.14-9,.55-13.18,6.14-3.2,5.25-11.5.93-14-2,7.4-9.24,12.86-10.91,7.62C9.09,53.51,17.89,50,32,44.61,43.81,40.19,51.42,36.54,55.92,30"/><path class="cls-3" d="M55.92,30c1.76-2.21.53-3.49-.69-2.25a10.61,10.61,0,0,1-8,2.92c-4.85-.35-8.72-1.3-12.27-.93-7,.71-13.79,5.13-17.45,8.86-6.16,6.31-12.95,19.41-6.1,22a3.05,3.05,0,0,1-1.2-1.74C9.09,53.51,17.89,50,32,44.61,43.81,40.19,51.42,36.54,55.92,30"/><path class="cls-2" d="M25.71,40.37c3.63,1.78,2.9,8,2.37,9.57,6.89-2,4.83-12.15,8-15.27-4-.12-11.51,3.91-10.4,5.7"/><path class="cls-1" d="M37.35,21.9a2,2,0,1,1,1.89,3.53,2,2,0,0,1-1.89-3.53"/><path class="cls-2" d="M54.07,22.75,81.7,3.51c.77-.55,1.8-1.74,1.38-2.31s-1.62-.26-2.64.2L50.55,17.54c-1,2,1,6.25,3.51,5.21"/><path class="cls-3" d="M51.64,18.94,80.51,2A4.73,4.73,0,0,1,83,1.14c-.43-.49-1.62-.2-2.6.26L50.55,17.54a4.54,4.54,0,0,0,1.82,5.15,6.47,6.47,0,0,1-.73-3.75"/><path class="cls-4" d="M9.11,26.5A1.38,1.38,0,0,1,10.77,28a2.13,2.13,0,0,1-1.72,2,1.36,1.36,0,0,1-1.64-1.44,2.17,2.17,0,0,1,1.7-2.05"/><path class="cls-4" d="M14.72,20.32a1.21,1.21,0,0,1,1.46,1.28,1.94,1.94,0,0,1-1.52,1.81,1.21,1.21,0,0,1-1.46-1.28,2,2,0,0,1,1.52-1.82"/><path class="cls-4" d="M31.67,12.15a1.2,1.2,0,0,1,1.14,1.58,1.92,1.92,0,0,1-1.87,1.42,1.22,1.22,0,0,1-1.14-1.58,1.92,1.92,0,0,1,1.87-1.42"/><path class="cls-4" d="M36.86,11.31a1,1,0,0,1,.75,1.46,1.63,1.63,0,0,1-1.74.93,1,1,0,0,1-.75-1.46,1.63,1.63,0,0,1,1.74-.93"/><path class="cls-4" d="M14.78,24.19a.91.91,0,0,1,1.08,1,1.39,1.39,0,0,1-1.12,1.32.9.9,0,0,1-1.08-.95,1.45,1.45,0,0,1,1.12-1.34"/><path class="cls-4" d="M6,31.45a.93.93,0,0,1,1.13,1A1.48,1.48,0,0,1,6,33.84a1,1,0,0,1-1.14-1A1.48,1.48,0,0,1,6,31.45"/><path class="cls-4" d="M77.95,2.74l-.75.41a4,4,0,0,0,1.38,2.31,6.81,6.81,0,0,1-.63-2.72M71.39,6.27l-.87.47c0,1.1.79,2.76,1.7,3A6,6,0,0,1,71.39,6.27ZM64.59,10l-1.12.61c.14,1.68,1.52,3.69,2.21,3.81A8.93,8.93,0,0,1,64.59,10ZM57.7,13.69l-1.28.69c.1,1.87,1.64,4.14,2.74,4.52A9.08,9.08,0,0,1,57.7,13.69Z"/></g></g></svg>