<svg xmlns="http://www.w3.org/2000/svg" viewBox="0 0 17.45 16.68"><defs><style>.cls-1{opacity:0.4;}.cls-2{fill:#21aaad;fill-rule:evenodd;}</style></defs><title>likedin - footer</title><g id="Layer_2" data-name="Layer 2"><g id="Footer"><g class="cls-1"><path class="cls-2" d="M.22,16.68H4V5.42H.22ZM2.09,3.89A2,2,0,1,0,2.12,0a1.95,1.95,0,1,0,0,3.89Z"/><path class="cls-2" d="M6,16.68H9.77V10.39a2.56,2.56,0,0,1,.12-.91,2,2,0,0,1,1.92-1.37c1.35,0,1.89,1,1.89,2.54v6h3.74V10.23c0-3.46-1.85-5.06-4.31-5.06a3.72,3.72,0,0,0-3.4,1.9h0V5.42H6c0,1.06,0,11.25,0,11.25"/></g></g></g></svg>