<svg xmlns="http://www.w3.org/2000/svg" viewBox="0 0 41.95 49.1"><defs><style>.cls-1{fill:#21aaad;opacity:0.6;}.cls-2{fill:#31d3db;}.cls-2,.cls-4,.cls-5{opacity:0.4;}.cls-3{fill:#333;}.cls-4{fill:#383c42;}.cls-5{fill:#afb1b3;}</style></defs><title>Make your teams - icon 2</title><g id="Layer_2" data-name="Layer 2"><g id="Narrative_section" data-name="Narrative section"><path class="cls-1" d="M33.79,11.85l-1,5.67a1,1,0,0,1-.66.78l-6.81,2.43V29l1.39,10.42a1.18,1.18,0,0,1-.35,1,1.15,1.15,0,0,1-.83.34l-.21,0a1.27,1.27,0,0,1-1-1.1L22.81,28.56H20.46L19,39.71a1.2,1.2,0,0,1-1.53,1,1.25,1.25,0,0,1-.84-1.37L18,29V22.56l-2.51,2.26a1.91,1.91,0,0,1-3.18-1.42V16.78a1.22,1.22,0,0,1,1.42-1.2,1.3,1.3,0,0,1,1,1.29v5.34l.68-.62,3.82-3.46.21-.18a3.68,3.68,0,0,1,4.9.46l.18.2,6.21-2.1.94-6a.21.21,0,0,1,.13-.16.2.2,0,0,1,.2,0l.24.19,1.49.95a.21.21,0,0,1,.09.21Z"/><circle class="cls-2" cx="21.95" cy="11.23" r="3.79"/><rect class="cls-1" x="25.91" y="1.13" width="5.86" height="5.86" transform="translate(9.46 25.81) rotate(-56.31)"/><path class="cls-3" d="M41.51,16.56l.44-.69-7.82-5a.21.21,0,0,1-.1-.17v-.1a2,2,0,0,0-2.77-1.76l-.09,0a.21.21,0,0,1-.19,0l-6.24-4-.44.69,6,3.79a.21.21,0,0,1,.08.27l-.08.16a2,2,0,0,0-.18.57l-.77,5a.21.21,0,0,1-.14.17l-.11,0-4.88,1.65a.21.21,0,0,1-.21,0l-.08-.07a4.41,4.41,0,0,0-5.65-.21l-.24.2-.29.26-2.52,2.29a.22.22,0,0,1-.22,0,.21.21,0,0,1-.12-.19v-3a2.1,2.1,0,0,0-1.69-2.09,2,2,0,0,0-2.37,2v6.63a2.72,2.72,0,0,0,4.55,2l.8-.72a.21.21,0,0,1,.22,0,.21.21,0,0,1,.13.19v4L15.09,38.87a2.06,2.06,0,0,0,1.3,2.22l.57.21a.21.21,0,0,1,0,.4l-.59.17a16.45,16.45,0,0,0-3.66,1.52l-8.83,5,.41.71,8.83-5a16,16,0,0,1,15.65,0l8.83,5,.41-.71-8.83-5a16.57,16.57,0,0,0-3.66-1.52l-.58-.16a.21.21,0,0,1,0-.4l.57-.21a2,2,0,0,0,.73-.45,2,2,0,0,0,.59-1.71L25.42,28.62V21.1a.21.21,0,0,1,.14-.2l.13,0,6-2.14a1.84,1.84,0,0,0,1.19-1.4l1-5.3a.21.21,0,0,1,.12-.15.23.23,0,0,1,.19,0ZM23.9,41.32a.21.21,0,0,1-.19.12h0l-.59-.08a16.92,16.92,0,0,0-4.3,0l-.6.08a.21.21,0,0,1-.21-.12.2.2,0,0,1,0-.24l.44-.41a2,2,0,0,0,.62-1.2l1.37-10.26a.21.21,0,0,1,.21-.18h.54a.21.21,0,0,1,.21.18L22.77,39.4a2.16,2.16,0,0,0,.65,1.27l.43.41A.21.21,0,0,1,23.9,41.32ZM33.09,11.5l-1,5.67a1,1,0,0,1-.66.78l-6.81,2.43v8.24L26,39a1.18,1.18,0,0,1-.35,1,1.15,1.15,0,0,1-.83.34l-.21,0a1.27,1.27,0,0,1-1-1.1L22.11,28.21H19.76L18.28,39.36a1.2,1.2,0,0,1-1.53,1A1.25,1.25,0,0,1,15.9,39l1.37-10.31V22.21l-2.51,2.26a1.91,1.91,0,0,1-3.18-1.42V16.43A1.22,1.22,0,0,1,13,15.23a1.3,1.3,0,0,1,1,1.29v5.34l.68-.62,3.82-3.46.21-.18a3.68,3.68,0,0,1,4.9.46l.18.2L30,16.15l.94-6a.21.21,0,0,1,.13-.16.2.2,0,0,1,.2,0l.24.19,1.49.95a.21.21,0,0,1,.09.21Z"/><path class="cls-3" d="M20.94,6.26a4.47,4.47,0,1,0,4.47,4.47A4.48,4.48,0,0,0,20.94,6.26Zm0,8.13a3.66,3.66,0,1,1,3.65-3.66A3.66,3.66,0,0,1,20.94,14.39Z"/><polygon class="cls-4" points="41.87 23.94 40.25 23.94 40.25 22.31 39.01 22.31 39.01 23.94 37.39 23.94 37.39 25.17 39.01 25.17 39.01 26.8 40.25 26.8 40.25 25.17 41.87 25.17 41.87 23.94"/><polygon class="cls-4" points="34.56 28 33.74 28 33.74 27.19 32.51 27.19 32.51 28 31.7 28 31.7 29.24 32.51 29.24 32.51 30.05 33.74 30.05 33.74 29.24 34.56 29.24 34.56 28"/><polygon class="cls-5" points="40.25 31.25 38.62 31.25 38.62 29.63 37.39 29.63 37.39 31.25 35.76 31.25 35.76 32.49 37.39 32.49 37.39 34.11 38.62 34.11 38.62 32.49 40.25 32.49 40.25 31.25"/><polygon class="cls-5" points="11.8 4.43 10.17 4.43 10.17 2.81 8.94 2.81 8.94 4.43 7.32 4.43 7.32 5.67 8.94 5.67 8.94 7.29 10.17 7.29 10.17 5.67 11.8 5.67 11.8 4.43"/><polygon class="cls-5" points="2.86 2.81 2.05 2.81 2.05 1.99 0.81 1.99 0.81 2.81 0 2.81 0 4.04 0.81 4.04 0.81 4.85 2.05 4.85 2.05 4.04 2.86 4.04 2.86 2.81"/><polygon class="cls-4" points="6.11 9.31 4.48 9.31 4.48 7.68 3.25 7.68 3.25 9.31 1.63 9.31 1.63 10.54 3.25 10.54 3.25 12.17 4.48 12.17 4.48 10.54 6.11 10.54 6.11 9.31"/></g></g></svg>