<svg xmlns="http://www.w3.org/2000/svg" viewBox="0 0 269.39 258.8"><defs><style>.cls-1{fill:#f2f2f2;}.cls-2,.cls-4{fill:#fff;}.cls-11,.cls-3{fill:#31d3db;}.cls-3{opacity:0.5;}.cls-10,.cls-4,.cls-6,.cls-8,.cls-9{fill-rule:evenodd;}.cls-10,.cls-5{fill:none;stroke:#383c42;stroke-linecap:round;stroke-linejoin:round;stroke-width:1.5px;}.cls-6{fill:#383c42;}.cls-12,.cls-13,.cls-7,.cls-9{opacity:0.6;}.cls-8,.cls-9{fill:#21aaad;}.cls-11{opacity:0.7;}.cls-12{fill:#8fc63f;}.cls-13{fill:#39b449;}.cls-14{fill:#019443;opacity:0.4;}</style></defs><title>Make Big Data Feel Small</title><g id="Layer_2" data-name="Layer 2"><g id="Gnarly_section" data-name="Gnarly section"><circle class="cls-1" cx="90.53" cy="90.53" r="90.53"/><path class="cls-2" d="M240.65,196.45a18.07,18.07,0,0,0-8,5.37,21.49,21.49,0,0,0-5.09,8.54c-1.31,3.81-2.23,6.75-4.08,9-5.43,5.24-15.43,6.56-19,6.65A15.69,15.69,0,0,1,190,217.95c-.16-.29-2-4.81-1.25-8,1.24-5.53,12.86-25.55,16-31.56l.37-.71.85-2.24c1,1.08,1.92,2,2.74,2.86,6,6.15,14,11.46,14.55,10.81.17-.18-.26-.81-.49-1.16a16.36,16.36,0,0,1-1.35-2.57c2.24,1.54,3.79,2.45,3.79,2.45s-4-6.09-4.15-19.42c-.06-5.82-.08-9.15-.31-11.79-.45-5.2-1.43-9.22-3.06-12.37l2.08-5.54a81.85,81.85,0,0,0,2.16-21.88c-.17-3.48-.52-6-.65-6.92-1.9-13.06-8.27-28.48-15.46-36.65C191,56.35,166.28,48.84,143.77,63a17.17,17.17,0,0,0-2.26,1.85l-1.06.83a1.43,1.43,0,0,0-.4.33l-51-44.37c-4.21-3.63-7.41-4.8-9.21-3.08a2.39,2.39,0,0,0-.51.74,2.79,2.79,0,0,0-.54.4c-2.11,2,.34,6.91,3.14,10.38l44.6,56.08c-1,2.06-1.42,6.82-.6,10.39h0v0a8.4,8.4,0,0,0,1.11,2.76l0,.08,0,.19a3.86,3.86,0,0,0-.07.45,5.19,5.19,0,0,0-.68.39c-.36,0-.87.45-1.34,1.41a9.35,9.35,0,0,0-1,5.59,38.52,38.52,0,0,0,1.79,11.09,55.44,55.44,0,0,1,1.72,10.32c0,3.14.19,7.49.47,12,0,.41,0,.81,0,1.15A113.75,113.75,0,0,0,132,172a131.33,131.33,0,0,0,7.45,23.39c.44,1,.9,2,1.38,3.11.58,1.62,1.13,3.21,1.64,4.75,2.63,8,8,14,13,18.25a56.69,56.69,0,0,0,11.06,9,58.55,58.55,0,0,0,29.62,6.66,56.39,56.39,0,0,0,18.52-3.59c2.87-1.13,7-2.76,7.16-2.37.06.11-.3.6-.39.71-1.53,1.82-5.9,8.65-3,16.51a15.31,15.31,0,0,0,5.67,7.49c3.21,2.08,7.86,2.51,13.15,1.8,4.91-.65,9-4,9.75-4.61a27.05,27.05,0,0,0,2.86-2.45l-.1-.06a7.15,7.15,0,0,0,1.15-1.07c-12.72-7.8-16.5-14.72-16.5-14.72a10.39,10.39,0,0,1,1-9.49,20.54,20.54,0,0,1,1.94-2.46,49.44,49.44,0,0,1,8.14-7C249.5,213.41,257,209.44,266,210c1.37.09,2.15.26,2.3-.07s0-.53-.3-1c.78.07,1.24.1,1.35-.15C270.17,207.1,254,191.71,240.65,196.45Z"/><path class="cls-2" d="M126.24,142.1c-10.64,4.3-38.25-3.4-38.25-3.4A14.51,14.51,0,0,0,89,141l-1.42-.38a19.42,19.42,0,0,0,3.52,5.9A42,42,0,0,0,105,157.06c5.63,2.92,10.11,4,16.16,5.58a55.51,55.51,0,0,0,6.75,1.07l-.2-2,.57.07Z"/><path class="cls-2" d="M104.06,122.81a13.17,13.17,0,0,0,1-2.28,19.62,19.62,0,0,0,1.24-6.59c0-.11,0-.22,0-.34s0-.29,0-.43a24.69,24.69,0,0,0-1.08-6.76,24.25,24.25,0,0,0-2.47-6.34c-1.64-3.46-4.55-8.49-7.49-8.18h0l-.49-.33a23,23,0,0,0-8.17-4.4C83.5,85.08,77,86.09,72.19,88.7a25.38,25.38,0,0,0-5.3,3.88,24.34,24.34,0,1,0,31.31,37.18A20.91,20.91,0,0,0,104.06,122.81Z"/><path class="cls-3" d="M129.88,155.14h0l0,.12Z"/><path class="cls-3" d="M132.47,169.22c-1.12-5.13-2-9.77-2.57-14,.65,4.13,2.16,12.55,4.34,21C133.53,173.74,132.94,171.35,132.47,169.22Z"/><path class="cls-3" d="M204.75,178.37c-3.16,6-14.78,26-16,31.56-.72,3.21,1.08,7.73,1.25,8A15.69,15.69,0,0,0,204.43,226c3.78-.09,14.6-1.53,19.81-7.44,2-2.32,3-5.37,4.35-9.36,2.52-7.31,6.69-10.87,12.07-12.77,13.39-4.74,29.52,10.65,28.71,12.39-.16.33-.93.17-2.3.07-9-.61-16.51,3.36-20.44,5.84s-9.46,8-11.12,10.58a10.39,10.39,0,0,0-1,9.49s3.78,6.93,16.5,14.72a27,27,0,0,1-2.86,2.45c-.74.63-4.84,4-9.75,4.61-5.29.7-9.95.28-13.15-1.8a15.31,15.31,0,0,1-5.67-7.49c-2.95-7.86,1.42-14.69,3-16.51.09-.11.45-.6.39-.71-.19-.39-4.29,1.24-7.16,2.37a56.4,56.4,0,0,1-18.52,3.59,58.55,58.55,0,0,1-29.62-6.66c-11.56-7.19-17.86-17.14-22.45-25.9l-15.27-48.34c-2.29-15.66-1.52-24.72-1.36-27.61a59.45,59.45,0,0,0-1.35-10.66c-1.2-5.2-5.79-14.14-.16-16.83.08-.64,0,0,.1-.65-2.22-3.21-1.33-10-.08-12.74L83,29c-2.8-3.48-5.25-8.37-3.14-10.38,1.8-1.73,5-.56,9.21,3.07L140,66a1.43,1.43,0,0,1,.4-.33l1.06-.83A17.16,17.16,0,0,1,143.77,63c22.51-14.16,47.21-6.65,62.06,10.24,7.18,8.17,13.56,23.59,15.46,36.65.13.9.48,3.44.65,6.92a81.85,81.85,0,0,1-2.16,21.88l-2.87,7.64c-1.52-5.1-4.09-8.48-8-10.82a11.26,11.26,0,0,0-4.37-1.76c-4.17-.37-8.56,2.22-10,7.5-.4,1.47-.9,4.53.44,10.05a60.1,60.1,0,0,0,11.09,22.43l.36.42-1.34,3.51-.37.71"/><path class="cls-3" d="M145.59,204.86a114.93,114.93,0,0,1-5.06-10.51c1.43,2.74,2.91,5.86,4.63,9.14Z"/><path class="cls-3" d="M140.5,194.29c-2.42-4.65-4.54-11.34-6.25-18a150.28,150.28,0,0,0,6.29,18.06Z"/><path class="cls-4" d="M166.73,228.84s-27.8-16.68-8.85-50.1c2.31-4.07,9-16.38,11.4-21.62,5.83-12.92,13-47.43-1-44.47-14.28,3-30.51,3.56-41.65-12.06-.8-1.12-5.07,3.72-.89,18,2.14,7.29,2.21,18.8,2.18,23.43-.14,25.7,9.34,45.54,14.53,61.3C148.15,220.55,166.73,228.84,166.73,228.84Z"/><path class="cls-3" d="M127.88,163.72a55.51,55.51,0,0,1-6.75-1.07c-6.06-1.53-10.53-2.66-16.16-5.58a42,42,0,0,1-13.83-10.55,19.42,19.42,0,0,1-3.52-5.9s27.61,7.7,38.25,3.4"/><path class="cls-3" d="M225.21,187.81s-4-6.09-4.15-19.42c-.06-5.82-.08-9.15-.31-11.79-.87-10.09-3.75-15.76-9.45-19.2a11.26,11.26,0,0,0-4.37-1.76c-4.17-.37-8.56,2.22-10,7.5-.4,1.47-.9,4.53.44,10.05a49.92,49.92,0,0,0,11.51,21.26C215.05,181.85,225.21,187.81,225.21,187.81Z"/><path class="cls-5" d="M128.25,161.79a55.51,55.51,0,0,1-6.75-1.07c-6.06-1.53-10.53-2.66-16.16-5.58a42,42,0,0,1-13.83-10.55,19.42,19.42,0,0,1-3.52-5.9s27.61,7.7,38.25,3.4"/><path class="cls-5" d="M126,96.56c5.09,16.52,31,20.25,42.7,15.56"/><path class="cls-5" d="M213.1,138.57c2.55,2.4,6.22,8.38,7,16.56.09.89,0,3.06,0,4.33-.1,6.74-.52,7.3-.49,10.47,0,1.69-1.1,11.46,3.15,18,.22.35.65,1,.49,1.16-.59.65-8.51-4.65-14.55-10.81-4.26-4.34-11.67-11.88-13.77-23.79-1.19-6.74-1-9.78-.1-13.36"/><path class="cls-6" d="M178.49,93.94a3.48,3.48,0,1,0-3.84,5.8,3.48,3.48,0,0,0,3.84-5.8"/><path class="cls-4" d="M136.41,72.4,83.82,23.08A10.54,10.54,0,0,0,79,20.24c1.13-.73,3.42.45,5.24,1.83l55.07,48.2c.78,3.3-3.07,8.82-6.75,9.55,1.77-2.1,4-4.84,4.09-7.26"/><g class="cls-7"><path class="cls-8" d="M195.68,71.24a2,2,0,0,0-2.84,1.6,3.21,3.21,0,0,0,1.86,3.46,2,2,0,0,0,2.84-1.6,3.21,3.21,0,0,0-1.86-3.47"/><path class="cls-8" d="M188.38,66.34a1.72,1.72,0,0,0-2.16,1.7,2.73,2.73,0,0,0,2,2.62,1.72,1.72,0,0,0,2.16-1.7,2.73,2.73,0,0,0-2-2.62"/></g><g class="cls-7"><path class="cls-8" d="M216.34,116a3,3,0,0,0-4.82.74,4.69,4.69,0,0,0,.77,5.82,3,3,0,0,0,4.76-.73,4.79,4.79,0,0,0-.71-5.83"/><path class="cls-8" d="M213.27,97.82a2.67,2.67,0,0,0-4.24.65,4.27,4.27,0,0,0,.67,5.18,2.67,2.67,0,0,0,4.24-.65,4.32,4.32,0,0,0-.67-5.18"/><path class="cls-8" d="M208.56,104.93a2,2,0,0,0-3.17.51,3.07,3.07,0,0,0,.52,3.8,2,2,0,0,0,3.14-.47,3.2,3.2,0,0,0-.49-3.83"/><path class="cls-8" d="M216.17,128.82a2.05,2.05,0,0,0-3.27.5,3.26,3.26,0,0,0,.5,4,2.1,2.1,0,0,0,3.3-.47,3.26,3.26,0,0,0-.53-4"/></g><path class="cls-9" d="M200.7,177.21a1.48,1.48,0,0,0-2.19-1,2.35,2.35,0,0,0-1.24,2.63,1.52,1.52,0,0,0,2.2,1,2.36,2.36,0,0,0,1.23-2.66"/><path class="cls-8" d="M86.39,22.58c-.37,2.57-2.13,4.78-2.8,5.91,1.19-.26,3.81-2.95,4.31-4.59l-1.51-1.32M96,41.46c2.19-.09,4.87-3.47,5.38-6l-1.75-1.52A14.12,14.12,0,0,1,96,41.46Zm12.66,13.88c1.64.07,5.8-3.84,7-7.6l-2.27-2C113,49,110.26,53.76,108.64,55.34Zm12.64,13.59c2.71-.31,7.37-4.73,8.53-9l-2.59-2.22C126.87,61.5,123.92,66.34,121.28,68.93Z"/><path class="cls-10" d="M204.52,177.6l-.45,1.19c-2.49,4.93-15.09,26.49-16.39,32.26-.72,3.21,1.08,7.73,1.25,8a15.69,15.69,0,0,0,14.45,8.08c3.78-.09,14.6-1.53,19.81-7.44,2-2.32,3-5.37,4.35-9.36,2.52-7.31,6.69-10.87,12.07-12.77,13.39-4.74,29.52,10.65,28.71,12.39-.16.33-.93.17-2.3.07-9-.61-16.51,3.36-20.44,5.84s-9.46,8-11.12,10.58a10.39,10.39,0,0,0-1,9.49s3.78,6.93,16.5,14.72a27,27,0,0,1-2.86,2.45c-.74.63-4.84,4-9.75,4.61-5.29.7-9.95.28-13.15-1.8a15.31,15.31,0,0,1-5.67-7.49c-2.95-7.86,1.42-14.69,3-16.51.09-.11.45-.6.39-.71-.19-.39-4.29,1.24-7.16,2.37a56.4,56.4,0,0,1-18.52,3.59,58.55,58.55,0,0,1-29.62-6.66c-15.93-9.9-22.6-24.83-27.11-35.1-4.82-11-8.62-25.64-10.26-39.82-.79-6.86-1.73-20-1.71-26.93A72.65,72.65,0,0,0,126.12,118c-1.2-5.2-4.74-15.28.89-18,.08-.64,0,0,.1-.65-2.22-3.21-1.8-10.53-.55-13.23L82,30.09c-2.8-3.48-5.25-8.37-3.14-10.38,1.8-1.73,5-.56,9.21,3.08l51,44.37a1.44,1.44,0,0,1,.4-.33l1.06-.83a17.16,17.16,0,0,1,2.26-1.85c22.51-14.16,47.21-6.65,62.06,10.24C212,82.55,218.34,98,220.24,111c.13.9.48,3.44.65,6.92a81.85,81.85,0,0,1-2.16,21.88l-.7,1.86"/><path class="cls-11" d="M79.69,86.68C90,85.28,97.35,93.82,99.1,95.85c1.27,1.47,10.91,13,5.66,25.48-4.39,10.45-15.58,12.9-16.45,13.08A23.54,23.54,0,0,1,63.91,124c-6.52-10.48-1.33-21.75-.14-24.13C64.9,97.67,69.72,88,79.69,86.68Z"/><path class="cls-12" d="M87.22,87.7c-2.72-2.78-9.86-1.81-15,1-4.42,2.38-10.56,7.79-9.62,13.28.36,2.1,1.82,4.58,3.82,5,2.38.45,4.72-2.24,6.49-4.27,2.84-3.27,2.88-5.26,6.26-8.4,1.65-1.53,2.72-2.07,3.82-2,1.58.12,2.16,1.48,3.44,1.22a3.18,3.18,0,0,0,2.14-2.9A4,4,0,0,0,87.22,87.7Z"/><path class="cls-13" d="M60.12,109c1.06-.89,2.78-.47,4.35-.08,1.81.45,3.67,1.3,8,4.89,5.93,4.9,6.56,6.71,6.79,7.63s.83,3.26-.38,4.73c-2,2.48-7.8.8-10.84-.76a16,16,0,0,1-7.1-7.56C60.78,117.49,57.81,111,60.12,109Z"/><path class="cls-14" d="M95.25,91.9c4.12-.43,8.17,9.59,8.78,11.15,1.19,3.05,3.4,8.92,1.6,15.57-.56,2.07-1.49,5.54-4.35,7-1.76.91-2.54.18-4.81,1.22-3,1.37-2.8,3.18-5.57,4.43-.34.15-4,1.77-6,.08s-1.53-5.78.31-7.86c1.24-1.4,2.37-1,3.82-2.82a9,9,0,0,0,1.68-4c.38-1.76.75-3.43-.23-4.66a2.53,2.53,0,0,0-1.91-1.07c-1.49.12-1.47,2.48-3.66,3.74a4.7,4.7,0,0,1-3.66.46,3.81,3.81,0,0,1-2.59-2.52c-.29-1.44,1-2,1.22-4.12.19-1.83-.66-2.06-.46-3.36.31-2,2.41-2.27,6.49-5.42.2-.16,1.69-1.45,4.66-4C94.49,92.17,94.69,92,95.25,91.9Z"/><path class="cls-5" d="M83.49,87.75A24.34,24.34,0,1,0,105.79,114,24.34,24.34,0,0,0,83.49,87.75Z"/></g></g></svg>