<svg xmlns="http://www.w3.org/2000/svg" viewBox="0 0 267.3 371.81"><defs><style>.cls-1{isolation:isolate;}.cls-10,.cls-2{fill:#f2f2f2;}.cls-3{mix-blend-mode:multiply;}.cls-13,.cls-4,.cls-9{fill:#fff;}.cls-17,.cls-4,.cls-6{stroke:#383c42;stroke-linecap:round;stroke-linejoin:round;stroke-width:1.5px;}.cls-14,.cls-5,.cls-7{fill:#383c42;}.cls-10,.cls-5{opacity:0.8;}.cls-17,.cls-6,.cls-8{fill:none;}.cls-11,.cls-12{fill:#31d3db;opacity:0.5;}.cls-12,.cls-13,.cls-14,.cls-16,.cls-17{fill-rule:evenodd;}.cls-15{opacity:0.6;}.cls-16{fill:#21aaad;}</style></defs><title>Open Source, For Everyone</title><g class="cls-1"><g id="Layer_2" data-name="Layer 2"><g id="Gnarly_section" data-name="Gnarly section"><circle class="cls-2" cx="130.49" cy="130.49" r="130.49"/><g class="cls-3"><g id="_Group_" data-name="&lt;Group&gt;"><path class="cls-4" d="M110.17,162.11h-8.24l.32-20.51a6.46,6.46,0,0,1,2.47.55c1.55.68,3.32,2.18,3.72,5.54l.06.54v.1C108.76,150.45,109.37,155.54,110.17,162.11Z"/><path class="cls-4" d="M110.11,162.11h-8.28l.42-20.51a6.46,6.46,0,0,1,2.47.55c1.55.68,3.32,2.18,3.72,5.54l.06.54v.1C108.75,150.45,109.35,155.54,110.11,162.11Z"/></g><polygon class="cls-4" points="94.24 159.79 94.1 159.93 91.87 162.11 86.32 162.11 87.23 161.12 87.39 160.93 87.4 160.93 89.67 158.44 90.36 157.68 90.53 157.5 90.65 157.36 93.36 159.2 94.24 159.79"/><path class="cls-4" d="M118,128.82l-.38-12.21v-.15h0l.22.09c10.46,4.51,21,.3,21.82-.06h.06v1.8h0v2.26l0,7.83"/><g id="_Group_2" data-name="&lt;Group&gt;"><polygon class="cls-4" points="128.04 162.11 87.42 162.11 87.4 160.93 87.29 155.55 87.28 155.49 87.04 143.66 86.99 141.11 86.94 138.55 86.94 138.55 86.91 137.21 86.91 136.91 86.89 136.06 86.83 133.14 101.96 132 105.04 131.76 118.03 130.78 118.03 130.79 118.1 130.99 122.52 144.84 123.34 147.39 128.04 162.11"/><polygon class="cls-4" points="171.35 132.68 170.75 162.11 130.19 162.11 139.65 130.32 139.81 130.33 139.81 130.33 142.68 130.54 142.69 130.54 153.29 131.33 155.22 131.48 155.33 131.49 155.9 131.53 156.47 131.57 161.83 131.97 171.35 132.68"/><polygon class="cls-4" points="128.04 162.11 87.42 162.11 87.4 160.93 87.29 155.55 87.28 155.49 87.04 143.66 86.99 141.11 86.94 138.55 86.94 138.55 86.91 137.21 86.91 136.91 86.89 136.06 86.83 133.14 101.96 132 105.04 131.76 118.03 130.78 118.03 130.79 118.1 130.99 122.52 144.84 123.34 147.39 128.04 162.11"/><polygon class="cls-4" points="171.35 132.68 170.75 162.11 130.19 162.11 139.65 130.32 139.81 130.33 139.81 130.33 142.68 130.54 142.69 130.54 153.29 131.33 155.22 131.48 155.33 131.49 155.9 131.53 156.47 131.57 161.83 131.97 171.35 132.68"/></g><path class="cls-4" d="M135.25,144.81l-5.54,17.3h-1.38l0,.09,0-.09-4.95-14.72-.86-2.57,0,0a18.06,18.06,0,0,0,8.69.78A27.2,27.2,0,0,0,135.25,144.81Z"/><g id="_Group_3" data-name="&lt;Group&gt;"><path class="cls-4" d="M87.62,162.11H72.79L68,159.64l0,0,0-.07,2.22-4,.37-.67h0l.65-1.19.07-.12.05-.09.05-.1.24-.45.93-1.7.82-1.5c2.3-4.22,4.76-8.74,6.09-11.26a9.46,9.46,0,0,1,3.19-3.57l.05,0h0A8.77,8.77,0,0,1,87,133.41l.05,2.62,0,.82v.3l0,1.79,0,1.9.06,3,.36,17.29Z"/><path class="cls-4" d="M87.62,162.11H72.79L68,159.64l0,0,0-.07,2.22-4,.37-.67h0l.65-1.19.07-.12.05-.09.05-.1.24-.45.93-1.7.82-1.5c2.3-4.22,4.76-8.74,6.09-11.26a9.46,9.46,0,0,1,3.19-3.57l.05,0h0A8.77,8.77,0,0,1,87,133.41l.05,2.62,0,.82v.3l0,1.79,0,1.9.06,3,.36,17.29Z"/></g><g id="_Group_4" data-name="&lt;Group&gt;"><path class="cls-4" d="M170.54,162.11h14.82l4.75-2.47,0,0,0-.07-2.22-4-.37-.67h0l-.65-1.19-.07-.12-.05-.09-.05-.1-.24-.45-.93-1.7-.82-1.5c-2.3-4.22-4.76-8.74-6.09-11.26a9.46,9.46,0,0,0-3.19-3.57l-.05,0h0a8.77,8.77,0,0,0-4.25-1.42l-.05,2.62,0,.82v.3l0,1.79,0,1.9-.06,3-.36,17.29Z"/><path class="cls-4" d="M170.54,162.11h14.82l4.75-2.47,0,0,0-.07-2.22-4-.37-.67h0l-.65-1.19-.07-.12-.05-.09-.05-.1-.24-.45-.93-1.7-.82-1.5c-2.3-4.22-4.76-8.74-6.09-11.26a9.46,9.46,0,0,0-3.19-3.57l-.05,0h0a8.77,8.77,0,0,0-4.25-1.42l-.05,2.62,0,.82v.3l0,1.79,0,1.9-.06,3-.36,17.29Z"/></g><path class="cls-4" d="M160.26,69l-.05-1s0,23.13,0,23.38a31.54,31.54,0,0,1-20.75,28.83h0a31.76,31.76,0,0,1-10.88,1.91,30.57,30.57,0,0,1-10.89-2A32.38,32.38,0,0,1,97.08,93.43c-.17-1.75-.18-1.28-.41-23.63l0-.54c0-17.69,2.39-41.89,31.89-42.51C157.87,26.13,160.26,51.33,160.26,69Z"/><path class="cls-4" d="M165.09,82.24V92.91a1.76,1.76,0,0,1-1.76,1.76h-1.48a1.31,1.31,0,0,1-1.59-1.32V82.68A1.76,1.76,0,0,1,162,80.92h1.48a1.76,1.76,0,0,1,1.54.91A1.67,1.67,0,0,1,165.09,82.24Z"/><path class="cls-4" d="M96.67,81.9V92.57a1.76,1.76,0,0,1-1.76,1.76H93.43a1.76,1.76,0,0,1-1.76-1.76V81.9a1.75,1.75,0,0,1,1.76-1.75h1.48A1.76,1.76,0,0,1,96.67,81.9Z"/><path class="cls-4" d="M139.46,120.2a31.54,31.54,0,0,0,20.75-28.83c0-.26,0-23.38,0-23.38l.05,1c0-17.69-2.18-42.07-31.47-42.07C98.46,27,96.7,51.57,96.7,69.26l0,.54c.22,22.35.23,21.88.41,23.63a32.38,32.38,0,0,0,20.61,26.68,30.57,30.57,0,0,0,10.89,2,31.76,31.76,0,0,0,10.88-1.91Z"/><path class="cls-4" d="M106.41,49.76C101,53.83,97,81.58,96.1,80.63a.33.33,0,0,1-.06-.11A60.48,60.48,0,0,1,92.77,63c.41-15.8,8.58-24.24,10.25-25.81l.3-.27a5.35,5.35,0,0,0-.24,1,13.41,13.41,0,0,0,.85,5.56C104.69,45.82,105.76,48.15,106.41,49.76Z"/><path class="cls-4" d="M164.36,63a60.45,60.45,0,0,1-3.27,17.56c-.78,2.34-4.82-27-10.3-31.18,1.2-3,3.75-8,3.27-11.43a5.51,5.51,0,0,0-.24-1s-4.54.26.31-.09C156.4,36.63,163.94,47.16,164.36,63Z"/><path class="cls-4" d="M161.14,32.53c0,.61-.1,1.23-.19,1.87l-.06.38q-.15.92-.38,1.87l-.11.42-.1.39-.14.48-.13.44-.22.67q-.15.45-.32.9l-.09.23c-.11.3-.24.61-.36.92s-.19.47-.3.7c-.2.47-.42.95-.66,1.43l-.36.73-.25.49-.53,1c-14.47,26.33-53,10.47-61.13,2.16-2.53-2.58-5.55-6.7-5.91-12A19.28,19.28,0,0,1,92.77,27l.2-.34a41.11,41.11,0,0,1,9-9.9s.92,9.86,5.7,9.86c10.93,0,14-11.7,29.41-11.4,7.66.15,15.36,2.58,19.92,7.53l.48.54A15.35,15.35,0,0,1,161.14,32.53Z"/><path class="cls-4" d="M161.14,32.53c0,.61-.1,1.23-.19,1.87l-.06.38q-.15.92-.38,1.87l-.11.42-.1.39-.14.48-.13.44-.22.67q-.15.45-.32.9l-.09.23c-.11.3-.24.61-.36.92s-.19.47-.3.7c-.2.47-.42.95-.66,1.43l-.36.73-.25.49-.53,1c-14.47,26.33-53,10.47-61.13,2.16-2.53-2.58-5.55-6.7-5.91-12,0-.4,0-.8,0-1.21,0,0,0-.08,0-.11s0,0,0,0,0-.12,0-.18,0-.11,0-.16,0-.06,0-.09v-.08s0-.09,0-.14v-.09s0-.07,0-.1v-.17s0-.08,0-.13v-.21c0-.1,0-.19,0-.29l0-.14,0-.14v-.17q.1-.69.27-1.4l0-.14,0-.14,0-.13c.05-.2.11-.41.18-.62l0-.12,0-.14,0-.15,0-.15c.18-.54.39-1.08.63-1.64l.07-.15.1-.22.06-.14.09-.19.07-.14.08-.16,0-.09L92,26.3l.08-.15.08-.15c.19-.36.39-.72.61-1.09A40.44,40.44,0,0,1,102,14.66s.55,9.93,5.7,9.86c11.38-.18,14.39-11.4,29.41-11.4,7.93,0,15.91,2.76,20.4,8.07l.11.13h0l.11.13.11.14.1.13h0l.1.13.2.27.09.13.1.14.07.1.05.08.06.09.09.14.08.12,0,0,.08.12.09.15.06.09.06.09.06.1.16.29.07.14.09.18.07.13.07.15.07.15.07.15.07.15.07.16.07.17.06.15.13.32c.06.16.12.32.17.48l.06.17.1.33,0,.17.06.21,0,.13,0,.15,0,.19,0,.17,0,.22,0,.13,0,.17v0l.06.31,0,.18,0,.17v0l0,.17,0,.18,0,.16,0,.21v.15l0,.19v.19c0,.08,0,.15,0,.23v.17s0,.07,0,.11,0,.09,0,.14,0,.09,0,.14,0,.1,0,.15,0,0,0,.06,0,.11,0,.17C161.17,31.68,161.16,32.1,161.14,32.53Z"/><path class="cls-4" d="M128.28,162.11h0l0,.09Z"/><circle class="cls-5" cx="141.47" cy="79.02" r="2.99"/><circle class="cls-5" cx="116.3" cy="79.02" r="3"/><path class="cls-6" d="M138.66,101c0,3-4.39,5.44-9.8,5.44s-9.8-2.44-9.8-5.44c0,0,1.15,5.23,9.69,5.17S138.66,101,138.66,101Z"/><path class="cls-4" d="M218.06,217.43a13.07,13.07,0,0,1-1.38,1.23H203l-.58-.34a25.65,25.65,0,0,1-4.69-3.62l0-1.48h0l-.8-25.56-.1-3.16-.21-6.78-.1-3.17,0-.77v-.16l.57.24q1,.43,2.09.75h0a27.76,27.76,0,0,0,12.6.68,28.12,28.12,0,0,0,6.09-1.67v1.72h0v2.2l0,9.46v.6l.14,28.6v.09h0Z"/><path class="cls-4" d="M218.06,216.22h0l0,0h0a13.14,13.14,0,0,1-3.16,2.4H203.23l-.77-.34a23.19,23.19,0,0,1-4.84-3l0-1.67h0l-.71-26.17-.07-2.74-.19-7-.09-3.16,0-.77v-.16l.57.24q1,.43,2.09.75h0a27.76,27.76,0,0,0,12.6.68,28.12,28.12,0,0,0,6.09-1.67v1.72h0v2.2l0,9.46v.61Z"/><g id="_Group_5" data-name="&lt;Group&gt;"><polygon class="cls-4" points="248.39 189.29 248.19 199.17 248.18 199.63 248.18 199.63 248.13 202.24 248.06 205.74 248 208.54 247.97 210.07 247.93 211.84 247.81 217.95 247.8 218.07 247.8 218.12 247.79 218.66 246.91 218.66 246.76 218.66 246.63 218.66 246.63 218.66 208.35 218.66 214.25 198.82 214.25 198.81 217.76 187 217.79 187.01 217.91 187.02 217.92 187.02 229.37 187.87 232.23 188.09 242.41 188.84 247.04 189.19 247.04 189.19 248.39 189.29"/><path class="cls-4" d="M206.84,218.65h-32.5c-.32-.07-.36.11-.67,0h-6.36l-.14-6.92h0l-.1-5,0-1.21h0l-.22-11h0l0-1.64h0l-.07-3.17.28,0h0l6.59-.5,5.9-.45.37,0H180l3.33-.25,1.48-.11,7.58-.57h.21l3.67-.28.58,0h0l.06.2,2.82,8.82h0l1.46,4.56.8,2.49,3.57,11.18Z"/><polygon class="cls-4" points="248.39 189.29 248.19 199.17 248.18 199.63 248.18 199.63 248.13 202.24 248.06 205.74 248 208.54 247.97 210.07 247.93 211.84 247.81 217.95 247.8 218.07 247.8 218.12 247.79 218.66 246.91 218.66 246.76 218.66 246.76 218.66 246.63 218.66 208.35 218.66 214.25 198.82 214.25 198.81 217.76 187 217.79 187.01 217.91 187.02 217.92 187.02 229.37 187.87 232.23 188.09 242.41 188.84 247.04 189.19 247.04 189.19 248.39 189.29"/></g><g id="_Group_6" data-name="&lt;Group&gt;"><path class="cls-4" d="M266.55,214.71l-.87.45-.15.08-.71.37-2.22,1.16h0l-.28.14-.89.46L259,218.65H247.56v-.81l.12-5.86,0-1.77,0-1.53.06-2.82.1-4.85,0-1.45h0v-.45l.2-9.73h0a8.18,8.18,0,0,1,3.09.81h0a9,9,0,0,1,4.14,4l1.06,2c1.27,2.36,3,5.48,4.6,8.49L262.3,207l.19.35,3.7,6.76h0l.17.31Z"/><path class="cls-4" d="M266.55,214.71l-.87.45-.15.08-.71.37-2.22,1.16h0l-.28.14-.89.46L259,218.65H247.56v-.81l.12-5.86,0-1.77,0-1.53.06-2.82.1-4.85,0-1.45h0v-.45l.2-9.73h0a8.18,8.18,0,0,1,3.09.81h0a9,9,0,0,1,4.14,4l1.06,2c1.27,2.36,3,5.48,4.6,8.49L262.3,207l.19.35,3.7,6.76h0l.17.31Z"/></g><g id="_Group_7" data-name="&lt;Group&gt;"><path class="cls-4" d="M148.23,214.71l.87.45.15.08.71.37,2.22,1.16h0l.28.14.89.46,2.47,1.28h11.41v-.81l-.12-5.86,0-1.77,0-1.53-.06-2.82-.1-4.85,0-1.45h0v-.45l-.2-9.73h0a8.18,8.18,0,0,0-3.09.81h0a9,9,0,0,0-4.14,4l-1.06,2c-1.27,2.36-3,5.48-4.6,8.49L152.48,207l-.19.35-3.7,6.76h0l-.17.31Z"/><path class="cls-4" d="M148.23,214.71l.87.45.15.08.71.37,2.22,1.16h0l.28.14.89.46,2.47,1.28h11.41v-.81l-.12-5.86,0-1.77,0-1.53-.06-2.82-.1-4.85,0-1.45h0v-.45l-.2-9.73h0a8.18,8.18,0,0,0-3.09.81h0a9,9,0,0,0-4.14,4l-1.06,2c-1.27,2.36-3,5.48-4.6,8.49L152.48,207l-.19.35-3.7,6.76h0l-.17.31Z"/></g><g id="_Group_8" data-name="&lt;Group&gt;"><path class="cls-4" d="M184.83,188.18v.18c0,1-.27,6.43-.41,13.78,0,1.85-.06,3.83-.08,5.9,0,2.56,0,5.25,0,8,0,.86,0,1.74,0,2.61h-3.54v-.21c0-.64,0-1.28,0-1.93s0-1.34,0-2c0-.11,0-.21,0-.32,0-2,0-4.09,0-6.18,0-1.91.08-3.84.17-5.78q.05-1.23.12-2.46l0-.61,0-.31c0-.41,0-.81.07-1.22l.05-.76.05-.75c.18-2.48.41-4.95.7-7.37l1.34-.26Z"/><path class="cls-4" d="M184.83,188.18v.18c0,1-.27,6.43-.41,13.78,0,1.85-.06,3.83-.08,5.9,0,2.56,0,5.25,0,8,0,.86,0,1.74,0,2.61h-3.54v-.21c0-.64,0-1.28,0-1.93s0-1.34,0-2c0-.11,0-.21,0-.32,0-2,0-4.09,0-6.18,0-1.91.08-3.84.17-5.78q.05-1.23.12-2.46l0-.61,0-.31c0-.41,0-.81.07-1.22l.05-.76.05-.75c.18-2.48.41-4.95.7-7.37l1.34-.26Z"/></g><g id="_Group_9" data-name="&lt;Group&gt;"><path class="cls-4" d="M233.37,207.25c-.12,4.31-.44,8.25-.77,11.4h-3.35c.34-3.62.51-7.53.57-11.31.14-9-.32-17.33-.45-19.48l0-.54,2.84.38.06.37A99.62,99.62,0,0,1,233.37,207.25Z"/><path class="cls-4" d="M233.37,207.25c-.12,4.31-.44,8.25-.77,11.4h-3.35c.34-3.62.51-7.53.57-11.31.14-9-.32-17.33-.45-19.48l0-.54,2.84.38.06.37A99.62,99.62,0,0,1,233.37,207.25Z"/></g><path class="cls-4" d="M238.88,122.29l-.05-1s0,23.23,0,23.5a31.68,31.68,0,0,1-20.85,29h0A31.88,31.88,0,0,1,207,175.64a30.76,30.76,0,0,1-10.94-2,32.53,32.53,0,0,1-20.71-26.81c-.18-1.76-.19-1.29-.41-23.74l0-.54c0-17.78,2.41-41.84,32-42.71C234.25,79,238.88,104.51,238.88,122.29Z"/><path class="cls-4" d="M241.69,131.51l-1.54.11-1.31.09c.92-16.24-7-25.74-7-25.74a19.7,19.7,0,0,0,.52-9.63A26.67,26.67,0,0,0,230,89.12C246.81,98.92,241.69,131.51,241.69,131.51Z"/><path class="cls-4" d="M231.79,106s8,9.5,7,25.74l2.85-.2S246.81,98.92,230,89.12C230,89.12,234.55,97.7,231.79,106Z"/><path class="cls-4" d="M233.24,101.61c-.4,7.55-5.39,14-13.86,14.1-20.43.2-24.11-11.25-36-10.83-8.15.29-8.87,15.94-8.78,22.95,0,1.3,0,2.44,0,3.32l-2.71-.07c-.28-3.73-.59-8-.63-12.5.17-18.08,5.17-38.47,32.93-38.47,12.16,0,20.16,4.32,24.62,10A20.41,20.41,0,0,1,233.24,101.61Z"/><path class="cls-4" d="M233.24,101.61c-.4,7.55-5.39,14-13.86,14.1-20.43.2-24.11-11.25-36-10.83-8.15.29-8.87,15.94-8.78,22.95,0,2,.12,3.33.12,3.33h-.09l-2.71-.07c-.28-3.73-.59-8-.63-12.5-.17-18.54,4.14-40.46,32.93-40.46C225.2,78.12,233.8,90.95,233.24,101.61Z"/><path class="cls-4" d="M243.86,132.81v10.5a1.74,1.74,0,0,1-1.73,1.74h-1.46a1.73,1.73,0,0,1-1.52-.91,1.75,1.75,0,0,1,0-.39V133.24a1.73,1.73,0,0,1,1.73-1.73h1.46a1.73,1.73,0,0,1,1.52.89A1.63,1.63,0,0,1,243.86,132.81Z"/><path class="cls-4" d="M175.16,132.81v10.5a1.74,1.74,0,0,1-1.73,1.74H172a1.73,1.73,0,0,1-1.73-1.74v-10.5a1.73,1.73,0,0,1,1.73-1.73h1.46A1.73,1.73,0,0,1,175.16,132.81Z"/><circle class="cls-7" cx="220.5" cy="132.34" r="3.33"/><path class="cls-7" d="M193.19,129a3.33,3.33,0,1,1-3.33,3.33A3.33,3.33,0,0,1,193.19,129Z"/><path class="cls-4" d="M174.76,149"/><path class="cls-4" d="M171.63,218.65l-.11-.15-.31-.46a17.84,17.84,0,0,1-.93-1.61,23.49,23.49,0,0,1-1.42-3.47l-.12-.38q-.32-1-.58-2.15l-.12-.54h0c-.05-.25-.11-.51-.16-.77s-.12-.63-.18-1l-.08-.45,0-.1-.07-.45,0-.15c0-.23-.07-.47-.1-.7h0l0-.31,0-.15,0-.42h0l0-.17c0-.36-.08-.73-.11-1.09s-.06-.74-.09-1.11h0V203l0-.42c0-.58-.07-1.16-.09-1.75q0-1.17-.05-2.38a.05.05,0,0,0,0,0c0-.22,0-.44,0-.66,0-.66,0-1.34,0-2,0,0,0,0,0-.06h0q0-.38,0-.76t0-.76s0,0,0-.07l0-.45c0-.32,0-.64,0-1s0-.85.08-1.28l0-.64q0-.65.1-1.3l0-.39,0-.39c0-.37.07-.73.1-1.1s.07-.73.11-1.1h0c0-.37.08-.73.12-1.1q.09-.82.19-1.65.13-1.1.28-2.19l.07-.55.08-.54.16-1.09q.27-1.82.57-3.61h0l.08-.49.08-.49.19-1.06,0-.09,0-.12.1-.52,0-.19.09-.48.09-.49.17-.92,0-.11.26-1.31q.16-.81.32-1.6.23-1.09.45-2.15l.19-.89.28-1.26v-.05l.14-.63.05-.23.1-.42v0l.18-.79c.11-.47.22-.93.33-1.39l.15-.63.12-.5h0c.35-1.41.68-2.74,1-3.94l.06-.22.42-1.59.12-.46.1-.36.06-.23.16-.57.07-.24,0-.16.06-.23,0-.12,0-.12q.27-1,.48-1.69l0-.13.23-.79,0-.09v0l0-.11v0l0-.12.05-.18,0-.11.07-.22h0l0-.09h0a.32.32,0,0,0,0,.05h0a31.2,31.2,0,0,0,.46,3.41h0c3.19,16.71,18.75,23,20.57,23.68h0l.17.06h0l.12.5,0,.08,0,.18.1.44,0,.13c.11.47.24,1,.38,1.73l.15.71.07.36h0c.48,2.4,1.05,5.68,1.49,9.39l.05.45c.05.45.1.9.15,1.36s.09.93.13,1.4.06.69.08,1c.07.86.13,1.74.17,2.63,0,.18,0,.36,0,.53,0,.38,0,.76,0,1.15a58.19,58.19,0,0,1-.77,12.1c-.06.32-.12.65-.19,1h0l-.12.55-.06.27-.13.54h0q-.1.4-.21.8h0q-.15.53-.31,1l-.21.63h0l0,.13-.11.29h0l-.08.21a21.31,21.31,0,0,1-1.55,3.26l-.26.43h0l-.27.42h0l-.28.41-.25.34Z"/><path class="cls-4" d="M247.36,199.43c0,.15,0,.3,0,.46h0v.4l0,.43s0,.07,0,.11c0,.38,0,.75-.06,1.12,0,.14,0,.29,0,.43l0,.42c0,.28,0,.56-.07.83l0,.41,0,.19c0,.14,0,.28,0,.43l0,.15h0l0,.4,0,.22q0,.32-.09.64c0,.35-.1.7-.16,1.05v0l-.07.44q-.24,1.35-.56,2.61h0c-.19.74-.39,1.45-.62,2.14l-.08.25h0l-.17.48-.27.71c-.09.23-.19.46-.29.69a20,20,0,0,1-1.05,2.09h0c-.18.31-.37.61-.57.9s-.56.8-.86,1.17H219.73l-.24-.29a16.77,16.77,0,0,1-1.43-2.05h0l0-.06h0c-.28-.47-.54-1-.78-1.47l-.22-.46h0c-.1-.22-.2-.44-.29-.67l0-.08q-.29-.7-.53-1.44h0l-.17-.51-.08-.26c-.07-.24-.14-.47-.21-.72-.2-.72-.38-1.46-.53-2.21l-.06-.28c-.18-.88-.32-1.78-.44-2.7l0-.39h0c0-.25-.06-.51-.09-.77-.19-1.79-.28-3.63-.3-5.47a104.92,104.92,0,0,1,2.13-20.63l0-.22h0c.28-1.4.53-2.49.7-3.2l0-.14,0-.18,0-.08.11-.43,0-.07.51-.19a33.36,33.36,0,0,0,4-1.93h0c5.64-3.18,14.79-10.23,16.52-23.14h0c.08-.56.14-1.12.18-1.7h0l0,.08v0l.07.23h0l0,.1.05.17,0,.12v0l0,.11v0l0,.09c.15.49.34,1.16.58,2l.06.22,0,.12.08.29,0,.12.06.22.15.53.2.71,0,.08.06.21.08.3.13.46.09.32q.24.89.5,1.87l.14.53.1.38.09.34q.27,1.06.55,2.21l.06.25.19.76,0,.16.1.4.1.4,0,.2.23,1v0l.15.64.14.63v.05l.18.81q.15.66.29,1.32l.1.45.1.45q.3,1.4.59,2.86.19.93.37,1.88l.09.5q.25,1.28.48,2.59l.09.52.12.68.11.65h0v0l0,.21.09.55.16,1,.17,1.13.08.54c0,.3.09.6.13.91l.06.42,0,.3c.05.36.1.72.15,1.08s.09.72.14,1.09l.07.54.07.54.06.54V185c.12,1.07.23,2.13.32,3.2,0,.17,0,.33,0,.49l0,.49c0,.39.06.79.09,1.18q.1,1.39.16,2.76C247.39,195.28,247.41,197.39,247.36,199.43Z"/><path class="cls-6" d="M216.09,153.86c0,3-4.39,5.44-9.8,5.44s-9.8-2.44-9.8-5.44c0,0,1.15,5.23,9.69,5.17S216.09,153.86,216.09,153.86Z"/><path class="cls-4" d="M82.09,139.1l0-.9s0,20.17,0,20.39A27.5,27.5,0,0,1,64,183.73h0a27.69,27.69,0,0,1-9.49,1.67A26.65,26.65,0,0,1,45,183.65a28.23,28.23,0,0,1-18-23.26c-.15-1.52-.16-1.12-.35-20.6l0-.47c0-15.43,2.08-36.52,27.8-37.07C80,101.7,82.09,123.67,82.09,139.1Z"/><path class="cls-4" d="M86.3,150.63v9.3a1.53,1.53,0,0,1-1.53,1.53H83.48a1.14,1.14,0,0,1-1.39-1.15V151a1.53,1.53,0,0,1,1.53-1.53h1.29a1.53,1.53,0,0,1,1.34.79A1.46,1.46,0,0,1,86.3,150.63Z"/><rect class="cls-4" x="22.28" y="148.8" width="4.36" height="12.36" rx="1.53" ry="1.53"/><path class="cls-4" d="M64,183.73A27.5,27.5,0,0,0,82,158.59c0-.22,0-20.39,0-20.39l0,.9c0-15.43-1.9-36.68-27.44-36.68-26.44,0-28,21.46-28,36.89l0,.47c.19,19.49.2,19.08.35,20.6a28.23,28.23,0,0,0,18,23.26,26.65,26.65,0,0,0,9.49,1.75A27.69,27.69,0,0,0,64,183.73Z"/><path class="cls-6" d="M64.33,190l.16-6.49s-10,4.38-19.89,0l.21,6.5"/><polygon class="cls-8" points="76.54 194.67 71.49 205.79 71.49 205.79 64.58 212.69 62.21 210.32 62.28 210.25 54.67 202.63 64 193.29 69.58 187.71 76.54 194.67"/><polygon class="cls-8" points="62.21 210.32 58.26 214.28 54.59 217.94 50.77 214.13 46.97 210.32 54.59 202.7 62.21 210.32"/><polygon class="cls-8" points="54.51 202.63 46.89 210.25 46.97 210.32 44.59 212.69 39.15 207.25 33.22 194.08 39.6 187.71 45.17 193.29 54.51 202.63"/><polygon class="cls-6" points="39.15 207.25 44.59 212.69 46.97 210.32 54.59 202.7 54.51 202.63 52.07 200.18 45.17 193.29 39.6 187.71 33.22 194.08 39.15 207.25"/><polygon class="cls-6" points="71.49 205.79 64.58 212.69 62.21 210.32 54.59 202.7 54.67 202.63 57.43 199.86 64 193.29 69.58 187.71 74.08 192.21 76.54 194.67 71.49 205.79"/><polygon class="cls-6" points="54.67 202.8 62.28 210.42 62.21 210.49 58.26 214.45 54.59 218.11 50.77 214.3 46.97 210.49 46.89 210.42 54.51 202.8 54.59 202.72 54.67 202.8"/><g id="_Group_10" data-name="&lt;Group&gt;"><path class="cls-6" d="M18.2,218.69H9.33c.55-5.39,1-9.76,1.27-12.25.09-.84.16-1.46.2-1.85.72-6.15,6.66-6.21,6.76-6.21h0l.27,8.59Z"/></g><g id="_Group_11" data-name="&lt;Group&gt;"><g id="_Group_12" data-name="&lt;Group&gt;"><path class="cls-8" d="M44.3,218.69H18.36L17.91,207l-.35-8.84-.13.23h0v-.2l7.57-2.4,1.55-.49.57-.18,2.42-.77,1.87-.59,1-.32h.05l.43-.13.36.79.68,1.51h0l.21.47,5,11.19.32.7Z"/></g></g><polygon class="cls-6" points="44.3 218.69 18.31 218.69 17.8 206.98 17.43 198.38 17.43 198.38 17.42 198.19 24.99 195.79 26.54 195.29 27.11 195.12 29.52 194.35 31.39 193.76 32.39 193.44 32.44 193.43 32.86 193.29 33.22 194.08 33.9 195.59 33.9 195.59 34.11 196.06 36.38 201.11 39.15 207.25 39.46 207.95 44.3 218.69"/><g id="_Group_13" data-name="&lt;Group&gt;"><path class="cls-6" d="M91.63,218.69h8.87c-.55-5.39-1-9.76-1.27-12.25-.09-.84-.16-1.46-.2-1.85-.72-6.15-6.66-6.21-6.76-6.21h0L92,207Z"/></g><g id="_Group_14" data-name="&lt;Group&gt;"><g id="_Group_15" data-name="&lt;Group&gt;"><path class="cls-8" d="M65.6,218.69H91.53L92,207l.35-8.84.13.23h0v-.2l-7.57-2.4-1.55-.49-.57-.18-2.42-.77-1.87-.59-1-.32h-.05l-.43-.13-.36.79L76,195.59h0l-.21.47-5,11.19-.32.7Z"/></g></g><polygon class="cls-6" points="65.6 218.69 91.58 218.69 92.09 206.98 92.47 198.38 92.47 198.38 92.48 198.19 84.91 195.79 83.36 195.29 82.79 195.12 80.38 194.35 78.5 193.76 77.51 193.44 77.46 193.43 77.03 193.29 76.68 194.08 76 195.59 76 195.59 75.79 196.06 73.52 201.11 70.75 207.25 70.44 207.95 65.6 218.69"/><circle class="cls-7" cx="66.42" cy="146.47" r="2.99"/><path class="cls-7" d="M41.86,143.47a3,3,0,1,1-3,3A3,3,0,0,1,41.86,143.47Z"/><path class="cls-9" d="M34.15,104.15l.14-3.09s-14.47,5.48-14.47,18.41l2.25-3.94Z"/><path class="cls-6" d="M60.66,166.43c0,2-2.85,3.54-6.37,3.54s-6.37-1.58-6.37-3.54c0,0,.75,3.4,6.29,3.36S60.66,166.43,60.66,166.43Z"/><path class="cls-4" d="M38.16,108.24a4.06,4.06,0,0,0-.89.4c-2.71,1.54-10.63,8.55-10.16,37.63l-1.31-.09a62.56,62.56,0,0,1-4.55-16.56c-1.33-10.85.62-24,15.6-29.62a6.74,6.74,0,0,0-.55,2.69,8.31,8.31,0,0,0,.24,2.11A10.09,10.09,0,0,0,38.16,108.24Z"/><path class="cls-4" d="M90.17,124.49c-.22,13.17-4.91,24.5-8.35,22.32a25.8,25.8,0,0,1-.22-3.27c0-1.52,0-3.14,0-4.84.08-8.83-.68-19.59-16.59-26.55-12-5.25-30.35,5.62-31.1-7.49,0,0,0-.07,0-.1-.68-13,12.53-19.64,34.67-14.33C85.54,94.29,90.4,110.44,90.17,124.49Z"/><line class="cls-4" x1="43.56" y1="218.69" x2="65.6" y2="218.69"/><circle class="cls-6" cx="116.45" cy="78.68" r="11.06"/><circle class="cls-6" cx="141.92" cy="78.68" r="11.06"/><path class="cls-6" d="M134.67,87.92s-1,5.56-5.65,5.61-5.69-5.61-5.69-5.61"/><circle class="cls-10" cx="185.12" cy="147.35" r="5.76"/><circle class="cls-10" cx="226.62" cy="147.35" r="5.76"/><path class="cls-4" d="M211.86,142a8.41,8.41,0,0,1-2.38,4.33h0a4.92,4.92,0,0,1-7.09-.73h0a9.13,9.13,0,0,1-1.67-3.6"/><g id="_Group_16" data-name="&lt;Group&gt;"><g id="_Group_17" data-name="&lt;Group&gt;"><path class="cls-4" d="M63.66,167.33H44.57a9.55,9.55,0,0,1,6-8.87c3.41,3.41,7.09,0,7.09,0A9.55,9.55,0,0,1,63.66,167.33Z"/><path class="cls-4" d="M50.58,158.45a9.55,9.55,0,0,0-6,8.87H63.66a9.55,9.55,0,0,0-6-8.89S54,161.86,50.58,158.45Z"/></g></g><path class="cls-4" d="M58.83,155.76a7.79,7.79,0,0,1-1,2.48l-.08.12h0a5.26,5.26,0,0,1-.41.55h0a4.16,4.16,0,0,1-2.44,1.45h0a4.4,4.4,0,0,1-.76.07,4,4,0,0,1-3-1.23,5.71,5.71,0,0,1-.84-1.09l-.06-.1q-.15-.26-.27-.51a7.85,7.85,0,0,1-.6-1.74"/></g><path class="cls-2" d="M85.19,222.87l-.37-14.56c-.53-2.34-5.66-4.37-7.5-4.55-9.93-1-21.36,10.15-21.36,10.15a3.43,3.43,0,0,1-.83-.49,5.39,5.39,0,0,1,1.16-2.1s2.31-2.87,6.22-8.16c1-1.3,4.58-6.31,4.22-12-.05-.87-.29-3.25-.83-3.54-.15-.92-.38-1.81-.73-1.84s-.77,1-.86,1.25c-1.32,3.41-7.23,6.5-10.51,8.48-3.54,2.14-8.51,5.15-12.3,10.42-1.82,2.53-4.39,6.22-3.74,10.65a10,10,0,0,0,.84,2.78,13.16,13.16,0,0,0,3.91,6.13c9.1,8.87,34.8,7.54,42.89,4.82l0-1.7.53-.16S85.51,225.68,85.19,222.87Z"/><path class="cls-2" d="M226.06,222.89a34.67,34.67,0,0,0-7.92-12.16c-3.3-3.32-6.79-6.3-8.87-8.39a35.75,35.75,0,0,1-4.91-7.23c-.15-.33-1-2.15-1.45-2.06-.11,0-.27.24-.43.52-.18-.38-1.07-.35-1.47-.27s-.88,1.31-.92,1.86a31.9,31.9,0,0,0-.17,8c.28,2.72,1.82,6.09,4.87,12.71,2.17,4.71,3.89,6.21,2.7,7.4a1.71,1.71,0,0,1-.43.33c-1.59-2.28-4.25-6.52-8.45-9.57a19.73,19.73,0,0,0-7.44-4.33c1.13-6.84,2.36-12.23,2-19.12a63.92,63.92,0,0,0-.89-7.62c-2.43-14.35-9.85-31.19-18-40-16.8-18.24-44.83-28.45-69.29-12.26a18.46,18.46,0,0,0-2.41,2.06,12.69,12.69,0,0,0-1.34,1.09,1.57,1.57,0,0,0-.27.25l-1,.26L43.49,87.4c-4.73-3.9-8.29-5.11-10.24-3.16-.31.31,0-.78-.11-.36a3,3,0,0,0-1.61.85c-2.27,2.28.55,7.61,3.73,11.37l50.61,60.7c-1,2.3-1.39,7.56-.39,11.47h0v0a9.26,9.26,0,0,0,1.29,3l0,.09c-.09.69,0,0-.09.71-.33-.44-1.13,0-1.79,1.45-2.53,3.17-1.28,9.07,0,13.95.32,1.38.72,2.85,1.23,4.43.63,2.47,1.84,9.17,1.76,11.72-.11,3.63-.9,16.06,3.61,37.84,3.16,17.37,8.92,31.84,14.08,43.59a41.57,41.57,0,0,0,10.28,14.05,175.19,175.19,0,0,0,14.74,16.54,11.55,11.55,0,0,1,3.81,6c.69,3.47-.94,6.47-2.34,9-7.7,13.74-10.51,15.8-12.34,22.31-1.44,5.11-1.69,10.83-.87,11.05.33.09.75-.78,1.65-2l.31-.43c.08.29.17.47.3.51.33.09.75-.78,1.65-2a27.34,27.34,0,0,1,2.09-2.69c.36-.25.75-.5,1.18-.76,9.21-5.45,13.85-8,19.81-12.62a18,18,0,0,0,1.64-1.48l.62-.48c.44-.34.83-.7,1.2-1,1.75,1.29,22.41,16.24,42.58,15.7,4.3-.11,8.33-.91,8.35-1.69,0-.27-.47-.45-1.27-.7,2.07-.33,3.52-.8,3.53-1.26,0-.73-3.57-.8-7.77-3.52a28.59,28.59,0,0,1-4.26-3.36c-11.44-10.76-21-18.07-29.35-20.73a40.83,40.83,0,0,1-4.84-1.55c-3.82-2-4.89-6.23-5.1-7-.78-2.7-.44-5.05-.05-7.75a28.39,28.39,0,0,1,.84-3.86c2.93-10,14.94-32.82,16.56-35.89,1.1-2.1,2.17-4.12,3.1-5.94,3.81-7.42,8.55-15.71,11.83-25.15l.54-1.58c2.42.45,4.65.83,6.68,1.16,8.37,1.35,13.93,1.89,20.7.95,5.54-.77,11.28-1.66,13.9-6.1A11.6,11.6,0,0,0,226.06,222.89Z"/><path class="cls-11" d="M85.82,208.31c-.53-2.34-5.66-4.37-7.5-4.55-9.93-1-21.36,10.15-21.36,10.15h0a2.47,2.47,0,0,1-1.43-1.32c-.42-1.19.67-2.53,1.12-3.09,0,0,2.31-2.87,6.22-8.16,1-1.3,4.58-6.31,4.22-12-.06-.91-.32-3.52-.92-3.57-.39,0-.77,1-.86,1.25-1.32,3.41-7.23,6.5-10.51,8.48-3.54,2.14-8.51,5.15-12.3,10.42-1.82,2.53-4.39,6.22-3.74,10.65a12.56,12.56,0,0,0,4.11,7.1c9.1,8.87,35.92,7.49,44,4.77,0,0-1-7.78-1.15-10.6A59.13,59.13,0,0,1,85.82,208.31Z"/><path class="cls-6" d="M85.82,208.31A13.93,13.93,0,0,0,79,205.57c-9.93-1-21.36,10.15-21.36,10.15h0a2.47,2.47,0,0,1-1.43-1.32c-.42-1.19.67-2.53,1.12-3.09,0,0,2.31-2.87,6.22-8.16,1-1.3,4.58-6.31,4.22-12-.06-.91-.32-3.52-.92-3.57-.39,0-.77,1-.86,1.25-1.32,3.41-7.23,6.5-10.51,8.48-3.54,2.14-8.51,5.15-12.3,10.42-1.82,2.53-4.39,6.22-3.74,10.65a12.56,12.56,0,0,0,4.11,7.1c9.1,8.87,34.8,7.54,42.89,4.82"/><path class="cls-12" d="M224.19,223.37a34.67,34.67,0,0,0-7.92-12.16c-3.3-3.32-6.79-6.3-8.87-8.39a35.75,35.75,0,0,1-4.91-7.23c-.15-.33-1-2.15-1.45-2.06s-.88,1.31-.92,1.86a31.9,31.9,0,0,0-.17,8c.28,2.72,1.82,6.09,4.87,12.71,2.17,4.7,3.86,8,2.68,9.16-.37.37-.64.46-.88.4-1.42-.32-5.68-11-15.44-14,1.13-6.84,2.17-15.33,1.79-22.22a63.88,63.88,0,0,0-.89-7.62c-2.43-14.35-9.85-31.19-18-40-16.8-18.24-44.23-25.9-68.69-9.71a18.9,18.9,0,0,0-2.45,2.1l-1.15.95a1.59,1.59,0,0,0-.43.37L44,87.94c-4.73-3.9-8.3-5.11-10.24-3.16-2.27,2.28.55,7.61,3.73,11.37l50.61,60.7c-1.31,3-1.58,11.09.95,14.57-.09.72,0,0-.09.72-6.14,3.1-2,14.12-.52,19.83.63,2.47,1.84,9.17,1.76,11.72-.13,4.05-1.1,19.08,5.42,45.86,3,12.12,9.77,31.89,20.15,46.4a165.57,165.57,0,0,0,17.14,19.75,11.55,11.55,0,0,1,3.8,6c.69,3.47-.93,6.47-2.34,9-7.7,13.74-10.51,15.8-12.34,22.31-1.44,5.11-1.69,10.83-.87,11.05.33.09.75-.78,1.65-2a16,16,0,0,1,5.53-5.4c9.21-5.45,13.85-8,19.81-12.62,1.51-1.18,2.55-2.53,3.33-3.1,0,0,21.63,16.36,42.72,15.8,4.3-.11,8.33-.91,8.35-1.69s-3.57-.8-7.77-3.52a28.6,28.6,0,0,1-4.26-3.36c-11.44-10.76-21-18.07-29.35-20.73a40.8,40.8,0,0,1-4.84-1.55c-3.82-2-4.89-6.23-5.1-7-.78-2.7-.44-5.05-.05-7.75a28.36,28.36,0,0,1,.84-3.86c2.93-10,14.94-32.82,16.56-35.89,1.1-2.1,2.17-4.12,3.1-5.94,3.81-7.42,8.55-15.71,11.83-25.15.27-.79.58-1.7.91-2.69,1.56.28,3.05.53,4.44.75,8.36,1.35,13.93,1.89,20.7.95,5.54-.77,11.28-1.66,13.9-6.1A11.6,11.6,0,0,0,224.19,223.37Z"/><path class="cls-13" d="M125.23,305.58s-15.87-20.64-2.07-48.11c2.31-4.61,9.55-18.3,12-24.13,6.1-14.39,13.09-52.63-2.22-49C117.29,188,99.41,189,86.73,172.1c-.91-1.22-5.49,4.24-.52,19.83,2.55,8,2.91,20.67,3,25.78.5,28.34,9.09,50.61,16.45,67.36A43.55,43.55,0,0,0,125.23,305.58Z"/><path class="cls-6" d="M85.48,168.27c6,18.08,34.72,21.53,47.48,16.06"/><path class="cls-14" d="M143.73,163.45a3.84,3.84,0,1,0-4.09,6.49,3.84,3.84,0,0,0,4.09-6.49"/><path class="cls-13" d="M96.78,140.78l-59.25-53a11.62,11.62,0,0,0-5.38-3c1.23-.83,3.79.41,5.82,1.88l62,51.74c.94,3.62-3.16,9.8-7.19,10.71,1.9-2.36,4.24-5.43,4.32-8.11"/><g class="cls-15"><path class="cls-16" d="M162.1,138a2.22,2.22,0,0,0-3.09,1.84,3.54,3.54,0,0,0,2.14,3.77,2.25,2.25,0,0,0,3.09-1.84A3.54,3.54,0,0,0,162.1,138"/><path class="cls-16" d="M153.93,132.76a1.89,1.89,0,0,0-2.33,1.93,3,3,0,0,0,2.27,2.84,1.89,1.89,0,0,0,2.34-1.93,3,3,0,0,0-2.27-2.84"/></g><g class="cls-15"><path class="cls-16" d="M186,186.76a3.35,3.35,0,0,0-5.29.94,5.18,5.18,0,0,0,1,6.4,3.32,3.32,0,0,0,5.23-.93,5.28,5.28,0,0,0-.93-6.41"/><path class="cls-16" d="M182.17,166.83a3,3,0,0,0-4.66.82,4.71,4.71,0,0,0,.87,5.69,3,3,0,0,0,4.66-.82,4.76,4.76,0,0,0-.87-5.7"/><path class="cls-16" d="M177.16,174.8a2.22,2.22,0,0,0-3.48.64,3.39,3.39,0,0,0,.67,4.17,2.18,2.18,0,0,0,3.45-.6,3.53,3.53,0,0,0-.64-4.21"/><path class="cls-16" d="M186.17,201a2.26,2.26,0,0,0-3.59.63,3.59,3.59,0,0,0,.65,4.39,2.32,2.32,0,0,0,3.63-.6,3.6,3.6,0,0,0-.69-4.41"/></g><g class="cls-15"><path class="cls-16" d="M175.68,245.24a2.42,2.42,0,0,0-3.6-1.48,3.74,3.74,0,0,0-1.87,4.29,2.4,2.4,0,0,0,3.55,1.46,3.82,3.82,0,0,0,1.91-4.28"/><path class="cls-16" d="M170.26,254a1.64,1.64,0,0,0-2.44-1,2.6,2.6,0,0,0-1.3,2.93,1.68,1.68,0,0,0,2.45,1,2.6,2.6,0,0,0,1.29-3"/></g><path class="cls-16" d="M40.34,87.12C40,90,38.11,92.45,37.4,93.71c1.31-.32,4.13-3.35,4.64-5.17l-1.7-1.42M51.4,107.69c2.41-.15,5.28-4,5.78-6.77l-2-1.63A15.57,15.57,0,0,1,51.4,107.69Zm14.32,15c1.81,0,6.3-4.38,7.48-8.56L70.65,112C70.33,115.52,67.47,120.88,65.72,122.67ZM80,137.33c3-.41,8-5.4,9.18-10.1l-2.91-2.38C86,129,82.85,134.41,80,137.33Z"/><path class="cls-6" d="M167,222c.71-1.45,4.42-8.62,12.76-11.21a21.77,21.77,0,0,1,13.29.4c9.78,3,14,13.65,15.46,14,.24.05.51,0,.88-.4,1.18-1.18-.51-4.46-2.68-9.16-3.05-6.62-4.59-10-4.87-12.71a31.89,31.89,0,0,1,.17-8c0-.55.64-1.8.92-1.86s1.3,1.73,1.45,2.06a35.74,35.74,0,0,0,4.91,7.23c2.08,2.09,5.57,5.07,8.87,8.39a34.66,34.66,0,0,1,7.92,12.16,11.6,11.6,0,0,1-.72,9.85c-2.62,4.44-8.36,5.33-13.9,6.1-6.77.95-12.34.4-20.7-.95-6.18-1-14.26-2.5-23.72-4.79"/><rect class="cls-9" x="49.42" y="251.57" width="182.87" height="120.24"/><path class="cls-17" d="M190.36,206.17a81.62,81.62,0,0,0,.34-16.73c-.27-3.83-.73-6.62-.89-7.62-2.43-14.35-9.85-31.19-18-40-16.8-18.24-44.23-25.9-68.69-9.71a18.91,18.91,0,0,0-2.45,2.1l-1.15.95a1.58,1.58,0,0,0-.43.37L41.77,87.89C37,84,33.48,82.79,31.54,84.74c-2.27,2.28.55,7.61,3.73,11.37l50.61,60.7c-1.31,3-1.58,11.09.95,14.57-.09.72,0,0-.09.72-6.14,3.1-2,14.12-.52,19.83.63,2.47,1.84,9.17,1.76,11.72-.13,4.05-1.1,19.08,5.42,45.86.16.66.34,1.36.52,2.06H176.3c1.77-3.76,3.52-7.68,5.15-11.77"/><line class="cls-6" x1="127.51" y1="78.68" x2="130.85" y2="78.68"/><line class="cls-6" x1="105.38" y1="77.02" x2="98.35" y2="75.14"/><line class="cls-6" x1="152.98" y1="77.83" x2="158.91" y2="76.38"/></g></g></g></svg>